<svg id="svg" version="1.1" xmlns="http://www.w3.org/2000/svg" xmlns:xlink="http://www.w3.org/1999/xlink" width="400" height="400" viewBox="0, 0, 400,400"><g id="svgg"><path id="path0" d="M193.905 36.873 C 190.360 37.413,190.296 37.447,154.794 58.093 C 135.797 69.140,119.625 78.677,118.857 79.286 C 112.470 84.352,112.496 94.699,118.908 99.801 C 119.705 100.434,125.851 104.138,132.566 108.032 C 142.023 113.516,144.747 115.205,144.649 115.524 C 143.365 119.703,142.755 129.464,143.489 134.077 C 144.853 142.651,148.234 151.721,151.927 156.717 C 152.227 157.123,152.423 157.490,152.363 157.535 C 152.116 157.717,148.644 159.238,148.474 159.238 C 148.237 159.238,141.274 162.704,139.334 163.788 C 129.624 169.213,121.259 175.481,113.113 183.435 L 109.782 186.688 85.211 144.074 C 71.697 120.637,60.282 100.961,59.844 100.351 C 54.296 92.619,38.857 99.889,40.611 109.407 C 40.922 111.093,44.940 118.162,86.352 189.856 L 88.560 193.680 87.069 195.697 C 80.412 204.702,81.226 217.602,88.963 225.714 L 89.750 226.540 85.254 226.540 C 82.564 226.540,79.714 226.694,78.157 226.923 C 74.949 227.396,70.354 228.297,69.841 228.554 C 69.632 228.659,68.203 229.123,66.667 229.585 C 65.130 230.048,63.816 230.509,63.746 230.610 C 63.676 230.711,62.737 231.160,61.660 231.608 C 60.582 232.055,59.439 232.625,59.120 232.874 C 58.801 233.123,58.066 233.568,57.487 233.861 C 56.908 234.155,56.279 234.545,56.090 234.727 C 55.901 234.909,55.117 235.453,54.349 235.936 C 53.581 236.419,52.838 236.942,52.698 237.099 C 52.559 237.256,51.987 237.714,51.429 238.117 C 48.863 239.967,41.143 248.575,41.143 249.586 C 41.143 249.713,40.872 250.070,40.542 250.381 C 39.594 251.271,36.426 257.855,35.332 261.206 C 32.198 270.811,31.726 279.167,33.783 288.595 C 34.060 289.861,34.286 291.150,34.286 291.459 C 34.286 291.768,34.376 292.059,34.486 292.106 C 34.596 292.152,35.013 293.276,35.412 294.603 C 35.811 295.930,36.635 298.076,37.243 299.372 C 37.852 300.668,38.349 301.840,38.349 301.975 C 38.349 302.111,38.450 302.222,38.573 302.222 C 38.696 302.222,39.103 302.829,39.479 303.570 C 39.854 304.311,40.524 305.317,40.969 305.806 C 41.980 306.916,43.848 309.391,43.884 309.667 C 43.898 309.781,44.202 310.104,44.558 310.384 C 44.915 310.665,45.206 311.051,45.206 311.242 C 45.206 311.434,45.425 311.743,45.693 311.931 C 45.960 312.118,47.451 313.496,49.006 314.993 C 50.561 316.490,51.917 317.714,52.019 317.714 C 52.121 317.714,52.580 318.057,53.038 318.476 C 53.497 318.895,53.944 319.238,54.030 319.238 C 54.117 319.238,55.165 319.888,56.358 320.683 C 60.628 323.523,66.763 326.185,71.111 327.083 C 75.350 327.959,78.099 328.426,80.254 328.638 C 81.698 328.780,118.015 328.878,170.673 328.882 L 258.679 328.889 258.992 330.855 C 259.530 334.240,261.347 336.286,264.424 336.975 C 267.195 337.595,268.267 337.004,275.810 330.702 C 276.438 330.177,277.349 329.468,277.834 329.127 C 278.319 328.787,280.128 327.337,281.853 325.905 C 285.619 322.780,285.006 322.807,288.254 325.623 C 290.877 327.897,291.468 328.526,290.703 328.233 C 290.491 328.151,290.110 328.205,289.857 328.352 C 289.492 328.564,289.674 328.621,290.736 328.627 L 292.076 328.635 296.726 332.381 C 302.057 336.676,303.710 337.462,305.678 336.640 C 306.186 336.428,306.799 336.254,307.041 336.254 C 307.775 336.254,309.516 334.816,310.180 333.662 C 311.227 331.840,311.403 330.275,311.515 321.778 C 311.802 299.998,312.125 286.023,312.352 285.452 C 312.490 285.108,312.614 284.997,312.628 285.206 C 312.643 285.416,313.103 285.897,313.651 286.276 C 315.325 287.434,316.253 289.309,317.082 293.209 C 317.396 294.686,317.238 304.291,316.892 304.707 C 315.389 306.520,321.208 302.217,323.572 299.768 C 339.661 283.100,332.775 255.165,310.730 247.675 C 306.097 246.101,316.943 246.237,194.032 246.212 C 132.781 246.199,83.695 246.254,84.952 246.333 L 87.238 246.476 85.645 247.081 C 84.769 247.413,83.991 247.784,83.916 247.906 C 83.841 248.028,83.509 248.127,83.178 248.127 C 82.847 248.127,82.419 248.284,82.228 248.475 C 81.764 248.939,80.251 249.729,79.624 249.835 C 79.348 249.881,78.811 250.259,78.432 250.674 C 78.053 251.089,77.560 251.429,77.336 251.429 C 77.112 251.429,76.646 251.712,76.300 252.058 C 75.954 252.404,75.588 252.701,75.486 252.718 C 75.385 252.735,75.330 252.852,75.365 252.978 C 75.400 253.103,75.314 253.221,75.175 253.238 C 75.035 253.256,74.812 253.284,74.678 253.302 C 74.545 253.319,73.984 253.762,73.431 254.286 C 72.878 254.810,72.302 255.238,72.150 255.238 C 71.997 255.238,71.869 255.324,71.865 255.429 C 71.850 255.757,70.936 256.738,70.572 256.815 C 70.381 256.856,70.018 257.215,69.766 257.614 C 69.514 258.013,69.084 258.398,68.810 258.470 C 68.537 258.542,68.137 258.971,67.922 259.424 C 67.707 259.877,67.251 260.375,66.908 260.531 C 66.566 260.687,66.286 261.022,66.286 261.276 C 66.286 261.530,65.948 262.018,65.535 262.361 C 65.121 262.704,64.779 263.121,64.773 263.289 C 64.767 263.456,64.476 263.901,64.127 264.278 C 63.778 264.655,63.492 265.078,63.492 265.219 C 63.492 265.360,63.229 265.830,62.907 266.262 C 62.034 267.436,61.311 268.755,61.116 269.531 C 61.021 269.911,60.824 270.222,60.679 270.222 C 60.533 270.222,60.485 270.337,60.571 270.476 C 60.658 270.616,60.619 270.730,60.484 270.730 C 60.245 270.730,59.575 272.198,59.645 272.569 C 59.711 272.915,58.868 274.794,58.647 274.794 C 58.527 274.794,58.499 274.977,58.585 275.200 C 58.670 275.424,58.602 275.692,58.433 275.797 C 58.263 275.902,58.084 276.204,58.034 276.470 C 57.984 276.735,57.920 276.952,57.891 276.952 C 57.863 276.952,57.812 277.238,57.779 277.587 C 57.745 277.937,57.531 278.903,57.303 279.736 C 57.075 280.568,56.889 281.511,56.889 281.831 C 56.889 282.151,56.790 282.413,56.670 282.413 C 56.550 282.413,56.506 282.698,56.573 283.048 C 56.640 283.397,56.588 283.683,56.457 283.683 C 56.327 283.683,56.194 284.625,56.160 285.778 C 56.127 286.930,56.002 288.902,55.882 290.159 C 55.666 292.414,55.673 292.463,56.435 293.841 C 60.640 301.450,68.317 306.982,77.652 309.131 L 80.127 309.701 169.592 309.775 L 259.057 309.850 258.989 316.004 L 258.921 322.159 170.921 322.232 C 109.560 322.284,82.036 322.223,80.000 322.033 C 62.487 320.395,47.583 308.735,41.825 292.167 C 32.481 265.286,51.059 236.523,79.619 233.651 C 84.876 233.123,304.842 233.424,307.683 233.964 C 342.076 240.498,356.593 280.003,334.344 306.514 C 330.592 310.985,325.849 314.659,319.619 317.920 C 317.663 318.944,316.330 319.724,316.656 319.655 C 317.225 319.534,317.243 319.576,317.109 320.717 C 317.032 321.370,316.898 322.720,316.811 323.717 C 316.678 325.237,316.564 325.573,316.104 325.795 C 315.108 326.278,316.131 326.106,318.273 325.431 C 336.497 319.691,350.658 300.065,351.420 279.492 C 352.008 263.601,344.251 246.861,332.062 237.715 C 331.225 237.087,330.447 236.427,330.334 236.249 C 330.220 236.071,330.032 235.985,329.915 236.057 C 329.798 236.129,329.352 235.861,328.924 235.461 C 328.495 235.061,328.103 234.775,328.052 234.826 C 328.001 234.877,327.398 234.519,326.711 234.031 C 326.024 233.542,325.312 233.143,325.129 233.143 C 324.945 233.143,324.865 233.030,324.951 232.892 C 325.039 232.748,324.938 232.705,324.714 232.791 C 324.483 232.880,324.258 232.774,324.166 232.536 C 324.080 232.313,323.908 232.193,323.783 232.270 C 323.658 232.348,323.556 232.283,323.556 232.127 C 323.556 231.971,323.441 231.914,323.302 232.000 C 323.162 232.086,323.048 232.029,323.048 231.873 C 323.048 231.717,322.921 231.668,322.765 231.764 C 322.610 231.860,322.410 231.831,322.321 231.701 C 322.232 231.570,321.244 231.136,320.127 230.736 C 319.010 230.336,318.022 229.900,317.933 229.766 C 317.844 229.632,317.672 229.584,317.551 229.658 C 317.430 229.733,316.882 229.577,316.334 229.310 C 315.786 229.043,315.187 228.825,315.002 228.825 C 314.818 228.825,314.667 228.711,314.667 228.571 C 314.667 228.432,314.410 228.317,314.095 228.316 C 313.781 228.315,312.181 228.030,310.539 227.681 C 308.897 227.333,307.255 227.048,306.891 227.048 C 306.291 227.048,306.239 226.971,306.346 226.241 C 306.666 224.062,301.622 212.328,298.378 207.707 C 298.118 207.336,297.905 206.968,297.905 206.890 C 297.905 206.811,296.924 205.239,295.726 203.397 C 285.446 187.598,272.377 175.081,255.968 165.321 C 252.977 163.542,244.623 159.238,244.161 159.238 C 243.993 159.238,240.523 157.719,240.275 157.537 C 240.216 157.494,240.517 156.974,240.943 156.381 C 244.553 151.348,247.805 142.506,249.146 134.077 C 249.749 130.287,249.345 120.818,248.420 117.089 C 247.989 115.348,247.737 113.863,247.860 113.787 C 247.984 113.712,253.014 110.794,259.039 107.302 C 265.063 103.810,270.644 100.434,271.441 99.801 C 277.853 94.701,277.879 84.352,271.492 79.286 C 268.927 77.252,201.226 38.067,199.365 37.539 C 196.939 36.852,195.334 36.656,193.905 36.873 M197.105 43.982 C 199.358 44.763,266.547 84.099,267.694 85.309 C 269.365 87.070,269.857 89.157,269.155 91.501 C 268.499 93.690,267.438 94.433,253.079 102.749 C 245.676 107.037,239.582 110.577,239.537 110.614 C 239.492 110.652,239.806 111.750,240.235 113.055 C 245.489 129.035,241.580 146.652,230.006 159.153 C 228.271 161.027,228.279 160.895,229.876 161.278 C 230.810 161.502,231.073 161.652,230.800 161.805 C 230.021 162.241,196.725 174.476,196.317 174.476 C 195.910 174.476,162.614 162.241,161.835 161.805 C 161.562 161.652,161.825 161.502,162.759 161.278 C 164.217 160.928,164.301 160.797,163.517 160.103 C 152.202 150.081,147.105 129.116,152.210 113.598 L 152.813 111.766 138.311 103.361 C 122.841 94.394,121.857 93.712,121.195 91.501 C 120.492 89.157,120.985 87.070,122.655 85.309 C 123.752 84.152,190.847 44.832,193.147 43.997 C 194.174 43.625,196.055 43.618,197.105 43.982 M54.267 104.475 C 54.522 104.807,66.159 124.906,80.127 149.140 L 105.524 193.203 107.256 193.367 C 108.209 193.457,109.659 193.756,110.478 194.032 L 111.966 194.534 117.507 189.008 C 126.484 180.054,134.624 174.062,145.401 168.473 C 149.219 166.493,154.686 164.063,155.325 164.063 C 155.539 164.063,163.130 169.138,172.194 175.340 L 188.674 186.617 192.397 182.007 C 194.444 179.471,196.209 177.397,196.317 177.397 C 196.426 177.397,198.191 179.471,200.238 182.007 L 203.961 186.617 220.441 175.340 C 229.505 169.138,237.094 164.063,237.306 164.063 C 240.619 164.063,257.605 173.941,266.369 180.965 C 280.154 192.011,295.223 212.266,299.284 225.206 L 299.463 225.778 201.192 225.778 L 102.922 225.778 100.921 225.125 C 87.503 220.746,85.327 202.017,97.469 195.408 C 97.509 195.386,86.223 175.749,72.390 151.769 C 58.556 127.789,47.238 108.003,47.238 107.800 C 47.238 105.751,53.113 102.973,54.267 104.475 M238.188 181.433 C 234.563 182.819,232.871 184.185,232.530 186.002 C 232.363 186.896,232.327 186.921,231.214 186.921 C 229.305 186.921,227.540 188.193,224.969 191.424 L 223.682 193.042 223.961 195.886 C 224.369 200.039,225.085 201.919,226.493 202.540 C 226.964 202.747,227.034 202.910,226.873 203.429 C 226.281 205.342,227.093 207.977,229.343 211.440 C 231.108 214.155,237.436 215.365,239.739 213.428 L 240.508 212.780 241.277 213.428 C 242.655 214.587,244.916 214.619,249.039 213.538 L 251.178 212.976 252.460 211.024 C 254.606 207.755,255.114 205.687,254.357 203.301 C 254.233 202.911,254.383 202.681,254.999 202.317 C 256.451 201.460,257.371 198.543,257.555 194.215 C 257.679 191.289,253.184 186.921,250.050 186.921 C 248.923 186.921,248.905 186.907,248.619 185.847 C 248.127 184.020,246.578 182.855,242.600 181.324 C 240.279 180.430,240.849 180.416,238.188 181.433 M241.778 186.696 C 241.778 186.820,241.447 186.921,241.043 186.921 C 240.132 186.921,239.817 187.567,240.539 187.953 C 240.825 188.106,241.126 188.165,241.207 188.084 C 241.288 188.003,241.221 187.937,241.058 187.937 C 240.895 187.937,240.762 187.822,240.762 187.683 C 240.762 187.543,241.056 187.429,241.415 187.429 C 242.295 187.429,242.151 188.219,241.212 188.549 C 239.804 189.044,238.885 187.171,240.212 186.512 C 240.835 186.203,241.778 186.314,241.778 186.696 M238.984 186.630 C 238.984 186.749,238.613 186.966,238.159 187.112 C 237.341 187.374,237.340 187.377,238.032 187.403 C 238.824 187.432,239.004 187.937,238.222 187.937 C 237.943 187.937,237.714 188.048,237.714 188.184 C 237.714 188.324,238.046 188.365,238.476 188.279 C 238.922 188.190,239.238 188.234,239.238 188.384 C 239.238 188.638,237.506 189.083,237.304 188.881 C 236.837 188.414,237.131 186.814,237.714 186.646 C 238.620 186.385,238.984 186.381,238.984 186.630 M244.214 186.822 C 245.145 187.056,244.953 187.493,244.000 187.311 C 243.340 187.184,243.264 187.208,243.619 187.430 C 244.227 187.810,244.182 188.262,243.556 188.063 C 243.264 187.971,243.048 188.018,243.048 188.173 C 243.048 188.322,243.333 188.444,243.683 188.444 C 244.096 188.444,244.317 188.587,244.317 188.853 C 244.317 189.122,244.180 189.208,243.913 189.105 C 243.690 189.020,243.233 188.881,242.897 188.797 C 242.196 188.621,242.200 188.638,242.559 187.345 C 242.756 186.633,242.933 186.412,243.216 186.520 C 243.429 186.602,243.878 186.738,244.214 186.822 M236.488 188.190 C 236.944 189.276,236.755 189.644,235.958 189.218 C 235.163 188.792,234.863 188.878,235.166 189.444 C 235.493 190.056,235.496 190.222,235.180 190.222 C 235.043 190.222,234.701 189.771,234.420 189.220 C 233.872 188.146,234.062 187.731,234.899 188.179 C 235.684 188.599,235.994 188.518,235.700 187.970 C 235.465 187.531,235.563 187.171,235.915 187.177 C 235.997 187.179,236.254 187.635,236.488 188.190 M246.485 187.839 C 247.172 188.289,247.336 189.206,246.730 189.206 C 246.298 189.206,246.255 189.426,246.584 189.946 C 246.766 190.233,246.937 190.157,247.447 189.565 C 247.797 189.158,248.161 188.902,248.255 188.996 C 248.445 189.186,247.387 190.730,247.066 190.730 C 246.660 190.730,245.841 189.844,245.841 189.404 C 245.841 188.882,245.565 188.823,245.134 189.253 C 244.610 189.777,244.534 189.303,244.989 188.349 C 245.485 187.308,245.610 187.265,246.485 187.839 M244.109 189.812 C 254.117 193.928,250.801 208.827,240.017 208.203 C 229.609 207.600,227.786 193.093,237.675 189.560 C 239.242 189.000,242.440 189.125,244.109 189.812 M232.381 190.415 C 232.381 190.521,232.141 190.758,231.848 190.941 C 231.555 191.124,231.383 191.341,231.466 191.423 C 231.548 191.506,231.849 191.363,232.133 191.105 C 232.602 190.682,232.688 190.675,233.046 191.032 C 233.484 191.470,233.133 192.360,232.414 192.636 C 231.869 192.845,231.688 192.505,232.193 192.222 C 232.436 192.086,232.635 191.860,232.635 191.719 C 232.635 191.578,232.386 191.638,232.081 191.851 C 231.110 192.532,230.460 191.590,231.277 190.687 C 231.699 190.221,232.381 190.053,232.381 190.415 M250.805 191.861 C 251.500 192.556,251.608 193.016,251.077 193.016 C 250.884 193.016,250.666 192.787,250.593 192.508 C 250.520 192.229,250.275 192.000,250.048 192.000 C 249.512 192.000,249.243 192.710,249.632 193.096 C 249.866 193.328,249.896 193.295,249.766 192.952 C 249.524 192.317,250.082 192.398,250.430 193.048 C 250.656 193.470,250.643 193.636,250.375 193.806 C 249.349 194.456,248.387 192.538,249.288 191.637 C 249.829 191.096,250.076 191.132,250.805 191.861 M232.055 193.360 C 232.001 193.520,231.820 193.651,231.652 193.651 C 231.184 193.651,230.828 194.365,231.186 194.586 C 231.402 194.720,231.410 194.850,231.213 195.047 C 230.923 195.338,229.454 193.437,229.683 193.067 C 229.876 192.754,232.162 193.037,232.055 193.360 M252.308 194.884 C 252.526 195.508,252.478 195.676,251.958 196.097 C 251.240 196.679,250.346 196.284,250.203 195.322 C 249.996 193.934,251.841 193.550,252.308 194.884 M229.412 195.028 C 229.312 195.412,229.435 195.535,229.988 195.600 C 230.374 195.645,230.743 195.841,230.807 196.034 C 230.898 196.311,230.725 196.349,230.001 196.213 C 229.264 196.075,229.079 196.119,229.079 196.433 C 229.079 196.649,228.965 196.825,228.825 196.825 C 228.532 196.825,228.508 196.446,228.730 195.333 C 228.817 194.897,229.035 194.540,229.214 194.540 C 229.410 194.540,229.489 194.734,229.412 195.028 M250.759 194.919 C 250.671 195.148,250.721 195.458,250.870 195.606 C 251.257 195.993,251.990 195.640,251.889 195.115 C 251.776 194.530,250.962 194.389,250.759 194.919 M252.952 197.849 C 252.952 198.939,252.464 199.401,251.851 198.892 C 251.610 198.691,251.437 198.696,251.224 198.910 C 250.747 199.386,250.545 198.905,251.007 198.394 C 251.529 197.817,251.541 197.587,251.048 197.587 C 249.858 197.587,250.894 196.875,252.127 196.845 C 252.925 196.826,252.952 196.859,252.952 197.849 M230.201 197.234 C 230.796 197.462,230.689 197.842,230.032 197.838 C 229.191 197.833,228.317 197.561,228.317 197.304 C 228.317 197.049,229.596 197.001,230.201 197.234 M230.338 198.462 C 230.695 198.893,230.601 199.919,230.192 200.054 C 230.013 200.113,229.953 199.909,230.031 199.502 C 230.102 199.132,230.037 198.857,229.879 198.857 C 229.727 198.857,229.659 199.003,229.728 199.182 C 229.963 199.794,229.193 200.538,228.726 200.150 C 228.096 199.627,228.175 198.253,228.825 198.423 C 229.104 198.496,229.397 198.452,229.475 198.325 C 229.680 197.993,229.989 198.042,230.338 198.462 M240.879 199.039 C 240.897 199.288,241.021 199.509,241.155 199.530 C 241.420 199.572,241.348 199.101,241.040 198.785 C 240.933 198.675,240.860 198.789,240.879 199.039 M239.661 199.297 C 239.587 199.418,239.631 199.682,239.759 199.885 C 240.201 200.585,240.040 200.909,239.336 200.732 L 238.673 200.566 239.112 201.235 C 239.612 201.999,239.806 202.103,239.567 201.480 C 239.442 201.154,239.506 201.094,239.842 201.223 C 240.219 201.367,240.266 201.252,240.185 200.381 C 240.087 199.327,239.892 198.924,239.661 199.297 M252.655 200.211 C 252.793 200.937,252.489 201.833,252.047 202.003 C 251.071 202.377,250.142 201.108,250.669 200.122 C 251.039 199.432,252.520 199.498,252.655 200.211 M240.782 200.726 C 240.767 201.271,240.857 201.415,241.143 201.305 C 241.352 201.225,241.524 201.266,241.524 201.398 C 241.524 201.529,241.163 201.730,240.722 201.844 C 239.917 202.053,239.463 202.970,240.001 203.302 C 240.141 203.389,240.182 203.284,240.097 203.061 C 240.006 202.825,240.084 202.665,240.290 202.663 C 240.556 202.660,240.548 202.603,240.254 202.413 C 239.943 202.212,239.974 202.166,240.422 202.163 C 240.856 202.160,240.957 202.290,240.902 202.787 C 240.864 203.132,240.935 203.352,241.058 203.275 C 241.182 203.199,241.252 202.945,241.213 202.711 C 241.173 202.468,241.287 202.316,241.479 202.355 C 241.664 202.394,241.740 202.303,241.648 202.154 C 241.556 202.005,241.681 201.573,241.927 201.195 C 242.230 200.730,242.255 200.606,242.004 200.811 C 241.597 201.144,241.172 200.971,240.947 200.381 C 240.865 200.164,240.793 200.313,240.782 200.726 M251.079 200.518 C 250.864 201.077,251.096 201.397,251.715 201.397 C 252.099 201.397,252.206 201.255,252.145 200.828 C 252.047 200.147,251.304 199.931,251.079 200.518 M230.857 200.731 C 230.857 200.923,230.686 201.223,230.476 201.397 C 229.931 201.849,230.006 202.221,230.603 202.032 C 230.953 201.921,231.111 201.986,231.111 202.241 C 231.111 202.445,230.836 202.681,230.500 202.765 C 230.164 202.849,229.714 202.985,229.501 203.067 C 229.219 203.175,229.044 202.958,228.852 202.266 C 228.534 201.113,228.690 200.804,229.510 200.961 C 229.897 201.035,230.186 200.947,230.269 200.731 C 230.443 200.278,230.857 200.278,230.857 200.731 M229.337 201.841 C 229.335 202.156,229.448 202.413,229.587 202.413 C 229.906 202.413,229.906 202.143,229.587 201.651 C 229.388 201.343,229.340 201.379,229.337 201.841 M242.286 201.905 C 242.076 202.040,242.008 202.153,242.135 202.155 C 242.261 202.157,242.149 202.416,241.885 202.730 C 241.621 203.044,241.774 202.966,242.226 202.556 C 242.678 202.145,243.048 201.774,243.048 201.730 C 243.048 201.574,242.660 201.663,242.286 201.905 M238.655 202.515 C 238.906 202.850,239.156 203.082,239.211 203.029 C 239.266 202.976,239.181 202.777,239.023 202.586 C 238.864 202.395,238.810 202.164,238.902 202.072 C 238.994 201.980,238.873 201.905,238.634 201.905 C 238.229 201.905,238.230 201.947,238.655 202.515 M251.298 202.589 C 252.373 203.102,252.337 203.417,251.159 203.816 C 250.346 204.092,250.325 204.125,250.857 204.296 C 251.423 204.477,251.606 204.828,251.238 205.024 C 251.133 205.080,250.592 204.864,250.036 204.543 L 249.024 203.960 250.026 203.542 C 251.001 203.134,251.013 203.115,250.458 202.818 C 250.145 202.650,249.969 202.434,250.066 202.336 C 250.300 202.103,250.261 202.095,251.298 202.589 M231.944 203.719 C 232.193 204.156,232.365 204.535,232.325 204.562 C 232.286 204.588,231.852 204.852,231.361 205.146 L 230.467 205.683 230.027 204.916 C 229.785 204.494,229.587 204.044,229.587 203.916 C 229.587 203.443,230.023 203.702,230.318 204.350 C 230.485 204.718,230.691 204.949,230.776 204.864 C 230.860 204.780,230.783 204.534,230.603 204.317 C 230.424 204.101,230.360 203.841,230.461 203.740 C 230.562 203.639,230.806 203.776,231.002 204.045 C 231.524 204.759,231.764 204.322,231.267 203.563 C 230.959 203.095,230.933 202.921,231.169 202.922 C 231.347 202.923,231.696 203.281,231.944 203.719 M236.613 204.813 C 235.728 205.518,235.952 205.714,237.642 205.714 C 238.404 205.714,239.361 205.896,239.802 206.124 C 240.518 206.494,240.659 206.496,241.255 206.145 C 241.978 205.717,244.777 205.507,245.352 205.837 C 245.551 205.951,245.332 205.640,244.866 205.145 C 243.967 204.192,243.139 204.095,241.181 204.715 C 240.778 204.842,240.272 204.848,240.038 204.727 C 239.025 204.205,237.321 204.248,236.613 204.813 M249.386 205.443 C 249.945 205.873,250.039 205.881,250.299 205.526 C 250.459 205.308,250.654 205.234,250.733 205.363 C 250.926 205.674,249.489 207.415,249.243 207.169 C 249.137 207.063,249.179 206.846,249.337 206.688 C 249.551 206.475,249.465 206.276,249.003 205.912 C 248.402 205.440,248.179 204.946,248.571 204.958 C 248.676 204.961,249.043 205.179,249.386 205.443 M233.397 205.709 C 233.397 206.333,232.547 208.014,232.337 207.804 C 232.201 207.668,232.217 207.289,232.376 206.870 C 232.615 206.243,232.594 206.185,232.195 206.348 C 231.497 206.635,231.048 206.629,230.942 206.332 C 230.889 206.183,231.277 205.940,231.804 205.793 C 233.095 205.431,233.397 205.415,233.397 205.709 M248.417 208.320 C 248.199 208.538,246.101 207.487,246.097 207.159 C 246.096 207.045,246.349 206.988,246.660 207.032 C 247.077 207.090,247.322 206.911,247.595 206.349 L 247.964 205.587 248.289 206.855 C 248.468 207.552,248.525 208.211,248.417 208.320 M234.667 206.867 C 234.667 207.207,233.521 208.508,233.222 208.508 C 232.747 208.508,232.801 208.348,233.566 207.490 C 234.185 206.795,234.667 206.523,234.667 206.867 M235.816 208.269 C 236.092 209.083,236.125 209.104,236.296 208.571 C 236.476 208.007,236.727 207.860,237.016 208.148 C 237.245 208.377,236.163 210.065,235.853 209.962 C 235.702 209.911,235.475 209.478,235.348 208.999 C 235.131 208.180,235.104 208.162,234.900 208.698 C 234.781 209.013,234.565 209.270,234.421 209.270 C 234.073 209.270,234.085 209.187,234.589 208.131 C 235.102 207.056,235.417 207.091,235.816 208.269 M246.324 208.395 C 246.954 209.463,246.964 209.524,246.507 209.524 C 246.314 209.524,246.016 209.183,245.844 208.767 C 245.551 208.060,245.495 208.036,244.994 208.387 C 244.374 208.821,244.063 208.864,244.063 208.516 C 244.063 208.290,245.241 207.526,245.626 207.502 C 245.717 207.497,246.031 207.899,246.324 208.395 M239.199 208.841 C 239.547 209.261,239.276 211.104,238.886 210.970 C 238.724 210.914,238.640 210.466,238.689 209.921 C 238.790 208.801,237.977 208.666,237.718 209.760 C 237.639 210.098,237.422 210.426,237.236 210.487 C 236.990 210.569,236.946 210.438,237.073 209.998 C 237.168 209.667,237.302 209.197,237.371 208.952 C 237.519 208.419,238.784 208.342,239.199 208.841 M244.013 208.813 C 244.685 209.485,244.047 210.794,243.048 210.794 C 242.497 210.794,241.778 210.147,241.778 209.651 C 241.778 208.734,243.346 208.146,244.013 208.813 M242.455 209.378 C 242.243 209.931,242.954 210.425,243.413 210.044 C 243.876 209.661,243.646 209.016,243.048 209.016 C 242.798 209.016,242.531 209.179,242.455 209.378 M95.866 251.304 C 99.432 252.060,103.354 254.561,106.344 257.987 L 107.671 259.509 104.093 262.707 C 100.091 266.284,100.171 266.246,99.320 264.996 C 96.621 261.033,91.520 259.581,89.236 262.126 C 87.225 264.366,88.279 265.789,98.286 274.347 C 107.545 282.265,109.747 286.611,108.084 293.688 C 105.404 305.097,89.222 308.617,80.508 299.687 C 78.132 297.252,75.926 293.729,76.466 293.231 C 76.730 292.987,82.509 289.412,84.357 288.350 C 84.448 288.297,84.818 288.757,85.179 289.372 C 88.612 295.231,95.013 296.714,97.964 292.334 C 99.774 289.649,98.380 287.367,91.302 281.431 C 84.160 275.441,81.055 272.096,79.615 268.841 C 75.278 259.034,84.643 248.927,95.866 251.304 M156.571 251.301 C 160.100 252.040,164.042 254.590,167.225 258.195 L 168.379 259.501 164.796 262.703 C 160.789 266.285,160.870 266.246,160.018 264.996 C 157.349 261.077,152.538 259.641,150.044 262.020 C 147.779 264.180,148.895 265.719,158.984 274.347 C 168.243 282.265,170.445 286.611,168.782 293.688 C 166.103 305.097,149.920 308.617,141.206 299.687 C 138.830 297.252,136.624 293.729,137.164 293.231 C 137.428 292.987,143.207 289.412,145.055 288.350 C 145.147 288.297,145.516 288.757,145.877 289.372 C 149.311 295.231,155.711 296.714,158.663 292.334 C 160.473 289.649,159.077 287.366,152.000 281.432 C 141.243 272.412,138.368 267.957,139.417 261.926 C 140.714 254.464,148.535 249.620,156.571 251.301 M128.635 277.841 L 128.635 303.365 123.683 303.365 L 118.730 303.365 118.665 278.095 C 118.629 264.197,118.655 252.680,118.722 252.502 C 118.817 252.253,119.963 252.195,123.740 252.248 L 128.635 252.317 128.635 277.841 M190.251 260.762 C 190.195 265.585,190.249 269.203,190.378 269.198 C 190.502 269.193,193.575 265.372,197.206 260.707 L 203.810 252.226 209.699 252.208 C 212.939 252.198,215.636 252.276,215.693 252.381 C 215.751 252.486,211.813 257.647,206.944 263.850 L 198.090 275.129 198.516 275.787 C 198.750 276.148,203.095 282.417,208.170 289.717 C 213.245 297.016,217.397 303.102,217.397 303.241 C 217.397 303.399,215.256 303.492,211.596 303.492 L 205.795 303.492 198.199 292.579 C 194.021 286.577,190.517 281.662,190.413 281.658 C 190.308 281.654,190.222 286.567,190.222 292.577 L 190.222 303.503 185.206 303.434 L 180.190 303.365 180.125 278.095 C 180.089 264.197,180.115 252.680,180.183 252.503 C 180.278 252.253,181.448 252.195,185.327 252.249 L 190.349 252.317 190.251 260.762 M241.651 252.455 C 251.550 253.390,256.272 258.100,256.282 267.048 C 256.291 276.441,250.848 281.165,239.304 281.782 L 235.942 281.961 235.876 292.663 L 235.810 303.365 230.794 303.434 L 225.778 303.503 225.778 277.847 L 225.778 252.190 232.317 252.191 C 235.914 252.191,240.114 252.310,241.651 252.455 M235.937 267.076 L 235.937 272.056 239.556 271.960 C 245.040 271.813,246.763 270.524,246.544 266.733 C 246.349 263.359,244.182 262.095,238.591 262.095 L 235.937 262.095 235.937 267.076 M305.428 285.778 C 305.343 290.143,305.215 298.114,305.144 303.492 C 304.914 320.859,304.703 330.159,304.540 330.153 C 304.453 330.150,300.438 326.939,295.619 323.017 C 290.800 319.095,286.490 315.601,286.041 315.253 L 285.226 314.621 275.506 322.517 C 270.160 326.860,265.696 330.413,265.585 330.413 C 265.474 330.413,265.448 327.013,265.527 322.857 C 265.710 313.271,266.159 282.825,266.159 279.986 L 266.159 277.841 285.871 277.841 L 305.582 277.841 305.428 285.778 M54.499 289.778 C 54.591 290.127,54.828 290.698,55.025 291.048 L 55.384 291.683 55.216 291.048 C 55.123 290.698,54.886 290.127,54.689 289.778 L 54.331 289.143 54.499 289.778 " stroke="none" fill="#f5f5f5" fill-rule="evenodd"></path><path id="path1" d="M193.524 44.040 C 192.348 44.372,124.767 83.534,123.176 84.805 C 120.332 87.078,120.332 91.970,123.176 94.242 C 123.664 94.632,130.406 98.630,138.159 103.125 C 154.875 112.819,153.066 111.441,152.273 113.872 C 147.337 128.991,151.511 147.174,162.603 158.884 C 164.639 161.034,164.601 160.870,163.161 161.274 C 161.552 161.724,160.638 161.331,179.365 168.249 L 196.317 174.511 213.270 168.249 C 231.996 161.331,231.083 161.724,229.474 161.274 C 228.034 160.870,227.996 161.034,230.032 158.884 C 241.323 146.965,245.374 128.656,240.136 113.223 C 239.523 111.420,239.373 110.683,239.584 110.514 C 239.743 110.386,245.816 106.833,253.079 102.617 C 269.567 93.047,269.302 93.260,269.302 89.524 C 269.302 85.544,272.398 87.651,232.127 64.230 C 195.050 42.668,196.218 43.278,193.524 44.040 M52.062 104.110 C 50.245 104.663,48.179 106.091,47.613 107.187 L 47.226 107.935 72.375 151.524 C 86.207 175.498,97.524 195.187,97.524 195.277 C 97.524 195.367,96.830 195.946,95.982 196.563 C 85.274 204.361,88.304 220.948,101.199 225.122 L 103.224 225.778 201.308 225.778 L 299.393 225.778 298.752 224.201 C 290.038 202.755,272.672 183.140,251.683 171.038 C 245.887 167.696,237.521 163.840,236.897 164.223 C 236.718 164.333,229.317 169.388,220.451 175.456 C 211.586 181.523,204.200 186.500,204.038 186.514 C 203.877 186.528,202.120 184.511,200.134 182.032 C 198.148 179.552,196.430 177.524,196.317 177.524 C 196.204 177.524,194.487 179.552,192.501 182.032 C 190.515 184.511,188.758 186.528,188.597 186.514 C 188.435 186.500,181.049 181.523,172.183 175.456 C 163.317 169.388,155.917 164.333,155.738 164.223 C 155.351 163.986,152.894 164.971,147.937 167.353 C 135.857 173.156,123.585 182.223,114.822 191.822 L 112.183 194.712 110.250 194.132 C 109.187 193.813,107.669 193.481,106.877 193.395 L 105.436 193.238 79.859 148.873 C 65.792 124.472,54.104 104.365,53.886 104.190 C 53.448 103.839,53.015 103.820,52.062 104.110 M242.389 180.055 C 246.136 181.345,248.499 182.941,249.234 184.679 C 249.725 185.841,249.802 185.905,250.725 185.905 C 252.703 185.905,254.657 187.319,257.343 190.695 L 258.641 192.326 258.572 194.385 C 258.425 198.802,257.491 201.945,256.060 202.840 C 255.678 203.079,255.320 203.307,255.265 203.346 C 255.211 203.384,255.312 203.592,255.490 203.807 C 256.517 205.044,255.202 209.130,252.621 212.723 C 250.871 215.159,243.610 216.373,241.245 214.625 L 240.508 214.080 239.810 214.593 C 237.517 216.278,230.641 215.172,228.924 212.843 C 227.025 210.264,225.653 207.021,225.652 205.105 C 225.651 203.480,225.593 203.296,224.850 202.552 C 223.657 201.359,222.855 198.198,222.701 194.085 C 222.590 191.133,227.670 185.905,230.649 185.905 C 231.482 185.905,231.583 185.819,231.982 184.774 C 232.687 182.928,234.969 181.364,238.984 179.975 C 240.474 179.460,240.671 179.464,242.389 180.055 M238.540 189.371 C 237.942 189.501,237.739 189.968,238.280 189.968 C 238.452 189.968,238.163 190.321,237.640 190.753 C 236.152 191.980,235.846 192.787,236.020 195.034 C 236.130 196.450,236.066 197.218,235.776 197.968 C 234.844 200.379,234.796 200.783,235.304 201.911 C 235.808 203.029,237.039 204.131,237.765 204.115 C 238.341 204.103,237.553 202.957,236.322 202.018 C 235.170 201.140,235.063 200.723,235.801 199.986 C 236.425 199.361,237.132 199.123,236.809 199.646 C 236.690 199.838,236.817 199.870,237.206 199.746 C 237.544 199.639,237.717 199.662,237.630 199.803 C 237.549 199.935,237.630 200.042,237.809 200.042 C 238.014 200.042,238.093 199.822,238.022 199.450 C 237.960 199.124,238.026 198.857,238.169 198.857 C 238.312 198.857,238.364 198.611,238.285 198.309 C 238.194 197.959,238.239 197.822,238.412 197.929 C 238.586 198.036,238.631 197.899,238.539 197.548 C 238.433 197.140,238.481 197.052,238.729 197.206 C 238.937 197.334,239.001 197.312,238.899 197.148 C 238.659 196.758,239.240 195.273,239.556 195.468 C 239.719 195.569,239.749 195.512,239.633 195.325 C 239.441 195.014,240.138 194.032,240.551 194.032 C 240.894 194.032,241.793 195.646,241.654 196.013 C 241.578 196.215,241.644 196.273,241.824 196.162 C 242.022 196.039,242.064 196.122,241.951 196.416 C 241.859 196.656,241.884 196.790,242.007 196.714 C 242.130 196.638,242.425 197.294,242.663 198.172 C 243.071 199.681,243.139 199.772,243.897 199.822 C 244.502 199.862,244.605 199.814,244.317 199.624 C 244.108 199.486,244.064 199.371,244.220 199.369 C 244.648 199.363,245.841 200.373,245.841 200.741 C 245.841 200.918,245.271 201.545,244.573 202.133 C 242.487 203.891,242.455 205.039,244.535 203.489 C 246.070 202.345,246.444 200.696,245.593 198.821 C 245.211 197.980,245.089 197.154,245.085 195.382 C 245.078 192.635,244.915 192.112,243.712 190.976 C 242.643 189.968,242.668 189.835,243.834 190.325 C 245.470 191.013,246.740 192.849,247.027 194.943 C 247.153 195.867,247.239 196.025,247.430 195.684 C 247.563 195.446,247.606 194.920,247.525 194.515 C 247.344 193.607,247.687 193.549,248.085 194.421 C 248.570 195.485,248.712 196.999,248.410 197.867 C 248.047 198.908,248.263 199.168,248.682 198.194 L 248.997 197.460 249.086 198.430 C 249.145 199.072,248.991 199.755,248.630 200.448 C 248.233 201.208,248.194 201.403,248.487 201.161 C 248.820 200.883,248.889 200.886,248.888 201.175 C 248.886 201.715,247.919 203.174,247.559 203.178 C 247.314 203.181,247.318 203.233,247.577 203.397 C 248.018 203.677,246.901 204.593,245.831 204.828 C 245.157 204.976,245.122 205.031,245.474 205.383 C 246.037 205.946,245.784 206.066,243.669 206.239 C 242.388 206.343,241.623 206.538,241.284 206.844 C 240.806 207.277,240.742 207.274,239.678 206.759 C 239.042 206.451,238.071 206.222,237.401 206.222 C 235.687 206.222,235.293 206.031,235.816 205.453 C 236.200 205.029,236.173 204.989,235.386 204.816 C 234.431 204.606,233.397 203.994,233.397 203.638 C 233.397 203.506,233.540 203.471,233.714 203.559 C 233.889 203.648,233.860 203.567,233.651 203.380 C 232.591 202.432,231.473 200.284,232.471 201.112 C 232.991 201.544,233.007 201.306,232.510 200.546 C 232.009 199.782,231.700 197.587,232.092 197.587 C 232.251 197.587,232.381 197.752,232.381 197.953 C 232.381 198.155,232.472 198.375,232.582 198.444 C 232.693 198.512,232.738 197.851,232.682 196.975 C 232.605 195.761,232.693 195.175,233.051 194.516 L 233.521 193.651 233.649 194.921 L 233.778 196.190 234.098 194.636 C 234.547 192.463,235.861 190.747,237.536 190.147 C 237.714 190.084,237.747 189.944,237.616 189.813 C 237.485 189.682,237.343 189.721,237.277 189.906 C 237.214 190.082,237.049 190.155,236.910 190.069 C 236.552 189.848,234.062 191.619,233.268 192.660 C 228.328 199.137,232.606 208.109,240.640 208.123 C 249.003 208.138,253.165 198.345,247.410 192.193 C 246.245 190.947,243.998 189.568,243.568 189.834 C 243.445 189.909,243.301 189.839,243.247 189.677 C 243.144 189.369,239.603 189.139,238.540 189.371 M234.471 197.635 C 234.597 198.014,235.175 198.223,235.175 197.890 C 235.175 197.753,234.994 197.572,234.772 197.487 C 234.525 197.392,234.409 197.449,234.471 197.635 M246.071 197.744 C 245.776 198.099,245.795 198.141,246.209 198.061 C 246.473 198.010,246.736 197.825,246.794 197.651 C 246.945 197.198,246.474 197.258,246.071 197.744 M246.601 199.241 C 246.346 199.548,246.361 199.619,246.684 199.619 C 247.158 199.619,247.468 199.205,247.144 199.004 C 247.018 198.927,246.773 199.033,246.601 199.241 M239.904 204.494 C 240.070 204.764,240.799 204.748,241.246 204.465 C 241.490 204.310,241.315 204.247,240.690 204.264 C 240.188 204.279,239.834 204.382,239.904 204.494 M77.968 234.033 C 54.151 237.289,37.276 258.819,39.890 282.613 C 42.030 302.091,56.416 317.513,76.007 321.329 L 78.857 321.884 168.825 321.961 L 258.794 322.039 258.795 319.559 C 258.795 318.195,258.870 315.451,258.961 313.460 L 259.127 309.841 170.135 309.840 C 73.061 309.839,79.181 309.930,74.369 308.420 C 51.401 301.213,44.225 272.233,61.206 255.253 C 65.479 250.979,70.273 248.300,76.825 246.524 L 78.857 245.973 190.984 245.900 C 315.276 245.818,305.390 245.688,310.753 247.482 C 337.154 256.316,340.324 292.556,315.857 305.826 C 314.574 306.522,313.752 307.011,314.032 306.914 C 315.166 306.517,315.504 306.466,315.349 306.717 C 315.262 306.858,315.179 309.784,315.166 313.218 L 315.142 319.462 313.825 319.895 C 313.101 320.133,312.367 320.380,312.196 320.443 C 311.956 320.531,311.866 319.320,311.809 315.263 L 311.735 309.968 311.677 315.365 C 311.645 318.333,311.713 320.762,311.829 320.762 C 312.029 320.762,315.069 319.744,315.999 319.365 C 316.242 319.266,316.379 319.084,316.303 318.960 C 316.227 318.837,316.342 318.804,316.559 318.888 C 318.408 319.597,329.405 311.973,333.715 306.994 C 357.190 279.878,340.952 237.990,305.387 233.916 C 301.698 233.493,81.084 233.607,77.968 234.033 M88.705 251.565 C 82.528 253.229,78.473 258.535,78.781 264.551 C 79.047 269.755,81.556 273.105,91.340 281.319 C 98.664 287.468,99.915 289.580,97.971 292.517 C 94.958 297.071,89.025 295.504,84.815 289.043 L 84.423 288.442 80.306 290.929 L 76.188 293.415 76.983 294.835 C 85.577 310.177,108.364 306.680,108.283 290.032 C 108.254 284.003,106.591 281.565,96.764 273.137 C 87.852 265.495,87.047 264.308,89.213 262.012 C 91.693 259.381,95.770 260.534,99.339 264.874 L 100.265 266.001 103.829 262.842 C 108.036 259.113,107.816 259.722,105.742 257.523 C 100.687 252.165,94.505 250.003,88.705 251.565 M149.206 251.640 C 142.964 253.521,139.173 258.553,139.479 264.551 C 139.745 269.755,142.254 273.105,152.038 281.319 C 159.363 287.468,160.613 289.580,158.669 292.517 C 155.656 297.071,149.724 295.504,145.513 289.043 L 145.121 288.442 141.004 290.929 L 136.887 293.415 137.682 294.835 C 146.275 310.177,169.062 306.680,168.982 290.032 C 168.952 284.003,167.290 281.565,157.463 273.137 C 148.551 265.495,147.745 264.308,149.911 262.012 C 152.392 259.381,156.468 260.534,160.037 264.874 L 160.963 266.001 164.527 262.842 C 166.488 261.104,168.099 259.575,168.109 259.443 C 168.143 258.990,163.142 254.349,161.696 253.492 C 158.038 251.322,152.826 250.550,149.206 251.640 M118.857 277.841 L 118.857 303.238 123.683 303.238 L 128.508 303.238 128.508 277.841 L 128.508 252.444 123.683 252.444 L 118.857 252.444 118.857 277.841 M180.317 277.841 L 180.317 303.238 185.270 303.238 L 190.222 303.238 190.222 292.263 C 190.222 282.655,190.268 281.334,190.592 281.660 C 190.795 281.864,194.267 286.775,198.308 292.571 L 205.654 303.111 211.546 303.179 L 217.438 303.248 216.945 302.544 C 209.545 291.985,198.251 275.587,198.183 275.302 C 198.133 275.092,201.816 270.178,206.368 264.381 C 210.920 258.584,214.871 253.527,215.149 253.143 L 215.654 252.444 209.732 252.454 L 203.810 252.465 197.333 260.729 C 193.771 265.274,190.714 269.112,190.540 269.258 C 190.287 269.469,190.222 267.787,190.222 260.983 L 190.222 252.444 185.270 252.444 L 180.317 252.444 180.317 277.841 M225.778 277.841 L 225.778 303.238 230.730 303.238 L 235.683 303.238 235.683 292.482 L 235.683 281.726 239.810 281.577 C 251.947 281.140,258.234 273.969,255.845 263.288 C 253.937 254.756,249.140 252.444,233.340 252.444 L 225.778 252.444 225.778 277.841 M243.077 262.347 C 247.653 263.647,248.075 269.800,243.714 271.622 C 243.060 271.896,241.574 272.080,239.210 272.181 L 235.683 272.332 235.683 267.047 L 235.683 261.763 238.921 261.925 C 240.702 262.014,242.572 262.204,243.077 262.347 M351.584 277.841 C 351.584 279.168,351.626 279.711,351.679 279.048 C 351.731 278.384,351.731 277.298,351.679 276.635 C 351.626 275.971,351.584 276.514,351.584 277.841 M276.635 278.032 L 266.413 278.101 266.411 278.924 C 266.411 279.376,266.236 291.048,266.024 304.861 C 265.811 318.674,265.682 330.020,265.736 330.075 C 265.791 330.129,270.203 326.624,275.540 322.285 L 285.246 314.396 288.464 317.002 C 292.853 320.555,295.806 322.957,300.413 326.717 C 302.560 328.470,304.389 329.905,304.476 329.905 C 304.563 329.904,304.671 326.619,304.714 322.603 C 304.758 318.587,304.899 308.216,305.028 299.556 C 305.157 290.895,305.264 282.467,305.266 280.825 L 305.270 277.841 296.063 277.902 C 291.000 277.935,282.257 277.994,276.635 278.032 " stroke="none" fill="#3b7ba3" fill-rule="evenodd"></path><path id="path2" d="M150.168 124.825 C 150.170 125.524,150.219 125.779,150.277 125.393 C 150.336 125.007,150.334 124.436,150.274 124.123 C 150.214 123.811,150.166 124.127,150.168 124.825 M242.358 124.825 C 242.360 125.524,242.410 125.779,242.468 125.393 C 242.526 125.007,242.525 124.436,242.464 124.123 C 242.404 123.811,242.356 124.127,242.358 124.825 M150.164 130.032 C 150.164 130.660,150.214 130.917,150.274 130.603 C 150.335 130.289,150.335 129.775,150.274 129.460 C 150.214 129.146,150.164 129.403,150.164 130.032 M242.355 130.032 C 242.355 130.660,242.404 130.917,242.465 130.603 C 242.525 130.289,242.525 129.775,242.465 129.460 C 242.404 129.146,242.355 129.403,242.355 130.032 M162.932 159.503 C 163.624 160.278,164.242 160.874,164.305 160.827 C 164.369 160.781,163.802 160.148,163.047 159.420 L 161.674 158.095 162.932 159.503 M229.466 159.486 C 228.781 160.181,228.271 160.786,228.333 160.831 C 228.394 160.875,229.005 160.306,229.689 159.567 C 231.263 157.867,231.114 157.813,229.466 159.486 M123.032 183.683 L 122.286 184.508 123.111 183.762 C 123.880 183.067,124.053 182.857,123.857 182.857 C 123.813 182.857,123.442 183.229,123.032 183.683 M268.698 182.937 C 268.698 182.980,269.070 183.352,269.524 183.762 L 270.349 184.508 269.603 183.683 C 268.908 182.913,268.698 182.740,268.698 182.937 M120.244 186.222 L 118.984 187.556 120.317 186.295 C 121.051 185.602,121.651 185.002,121.651 184.962 C 121.651 184.772,121.416 184.983,120.244 186.222 M272.127 186.159 C 272.815 186.857,273.435 187.429,273.505 187.429 C 273.575 187.429,273.069 186.857,272.381 186.159 C 271.693 185.460,271.073 184.889,271.003 184.889 C 270.933 184.889,271.439 185.460,272.127 186.159 M230.667 186.842 C 230.911 186.906,231.311 186.906,231.556 186.842 C 231.800 186.778,231.600 186.726,231.111 186.726 C 230.622 186.726,230.422 186.778,230.667 186.842 M249.714 186.842 C 249.959 186.906,250.359 186.906,250.603 186.842 C 250.848 186.778,250.648 186.726,250.159 186.726 C 249.670 186.726,249.470 186.778,249.714 186.842 M254.603 189.206 C 255.149 189.765,255.652 190.222,255.722 190.222 C 255.792 190.222,255.403 189.765,254.857 189.206 C 254.312 188.648,253.808 188.190,253.738 188.190 C 253.668 188.190,254.058 188.648,254.603 189.206 M237.079 190.390 C 235.353 191.300,234.626 192.340,234.048 194.728 L 233.693 196.190 233.672 195.111 C 233.660 194.517,233.550 194.032,233.428 194.032 C 232.964 194.032,232.576 195.590,232.681 197.036 C 232.755 198.056,232.696 198.519,232.492 198.519 C 232.330 198.519,232.251 198.309,232.318 198.053 C 232.385 197.797,232.313 197.587,232.157 197.587 C 232.001 197.587,231.879 197.902,231.887 198.286 C 231.908 199.294,232.457 200.762,232.813 200.762 C 232.980 200.762,233.266 200.928,233.448 201.131 C 233.733 201.449,233.717 201.453,233.333 201.163 C 232.990 200.903,232.889 200.898,232.889 201.143 C 232.889 201.383,232.788 201.375,232.471 201.112 C 232.097 200.802,232.074 200.832,232.248 201.399 C 232.497 202.207,232.888 202.697,233.154 202.533 C 233.377 202.395,233.733 202.846,233.812 203.366 C 233.838 203.542,233.741 203.611,233.596 203.521 C 233.445 203.428,233.385 203.510,233.455 203.711 C 233.525 203.907,233.849 204.035,234.187 203.999 C 234.614 203.954,234.691 204.001,234.449 204.158 C 234.006 204.445,234.331 204.639,235.592 204.840 C 236.861 205.043,237.649 204.381,236.842 203.790 C 236.582 203.600,236.269 203.507,236.147 203.583 C 236.024 203.658,235.955 203.574,235.994 203.396 C 236.032 203.217,235.930 203.066,235.767 203.059 C 235.604 203.053,235.376 202.944,235.259 202.816 C 235.136 202.682,235.181 202.662,235.365 202.768 C 235.783 203.009,235.766 202.860,235.251 201.779 C 234.792 200.816,234.846 200.425,235.792 197.886 C 236.094 197.076,236.158 196.366,236.036 195.177 C 235.825 193.116,237.323 189.573,238.149 190.180 C 238.213 190.226,238.331 190.198,238.413 190.116 C 238.712 189.817,237.819 190.000,237.079 190.390 M243.272 190.503 C 243.546 190.797,243.878 190.972,244.009 190.891 C 244.280 190.723,246.097 192.448,246.091 192.868 C 246.089 193.019,245.989 192.987,245.868 192.797 C 245.714 192.553,245.608 192.536,245.510 192.740 C 245.418 192.931,245.392 192.923,245.434 192.715 C 245.503 192.364,244.304 190.913,244.108 191.109 C 244.038 191.178,244.199 191.475,244.465 191.768 C 244.859 192.205,244.973 192.839,245.088 195.262 C 245.187 197.344,245.357 198.463,245.662 199.035 C 246.461 200.533,246.004 202.410,244.586 203.458 C 243.826 204.020,243.814 204.054,244.325 204.243 C 244.618 204.351,244.792 204.548,244.711 204.679 C 244.629 204.810,244.681 204.990,244.825 205.079 C 245.392 205.429,244.726 205.714,243.343 205.714 C 242.417 205.714,241.679 205.863,241.305 206.124 C 240.772 206.498,240.637 206.499,239.789 206.139 C 238.598 205.633,235.686 205.429,235.853 205.862 C 235.917 206.029,236.672 206.225,237.540 206.299 C 239.625 206.477,240.080 206.589,240.201 206.953 C 240.279 207.187,240.399 207.182,240.708 206.931 C 241.049 206.656,241.082 206.664,240.918 206.984 C 240.811 207.194,240.932 207.135,241.187 206.854 C 241.549 206.456,242.042 206.325,243.429 206.259 C 244.406 206.212,245.245 206.070,245.292 205.943 C 245.338 205.815,245.510 205.789,245.672 205.883 C 245.835 205.978,245.760 205.818,245.506 205.528 C 245.052 205.010,245.058 204.997,245.835 204.827 C 246.928 204.587,248.051 203.551,247.463 203.326 C 247.071 203.175,247.071 203.132,247.464 202.698 C 247.912 202.203,247.462 201.426,246.969 201.843 C 246.847 201.947,246.900 201.832,247.087 201.587 C 247.382 201.202,247.366 201.143,246.964 201.143 C 246.596 201.143,246.566 201.079,246.817 200.828 C 247.068 200.576,247.175 200.582,247.343 200.853 C 247.508 201.120,247.638 201.074,247.940 200.643 C 248.215 200.250,248.362 200.188,248.451 200.427 C 248.623 200.895,249.143 199.514,249.143 198.587 C 249.143 198.177,249.015 197.841,248.859 197.841 C 248.703 197.841,248.630 198.051,248.697 198.307 C 248.773 198.595,248.683 198.772,248.462 198.772 C 248.239 198.772,248.165 198.622,248.265 198.370 C 248.778 197.076,248.494 194.286,247.848 194.286 C 247.706 194.286,247.660 194.171,247.746 194.032 C 247.832 193.892,247.785 193.778,247.640 193.778 C 247.486 193.778,247.439 194.082,247.525 194.515 C 247.606 194.920,247.563 195.446,247.430 195.684 C 247.239 196.025,247.153 195.867,247.027 194.943 C 246.740 192.853,245.470 191.013,243.842 190.328 C 242.723 189.858,242.682 189.870,243.272 190.503 M114.911 191.556 L 113.651 192.889 114.984 191.629 C 115.717 190.935,116.317 190.335,116.317 190.295 C 116.317 190.106,116.082 190.317,114.911 191.556 M277.460 191.492 C 278.148 192.190,278.768 192.762,278.838 192.762 C 278.908 192.762,278.402 192.190,277.714 191.492 C 277.026 190.794,276.406 190.222,276.337 190.222 C 276.267 190.222,276.772 190.794,277.460 191.492 M236.520 191.357 C 236.269 191.702,235.971 191.988,235.858 191.992 C 235.745 191.996,235.734 192.132,235.834 192.293 C 235.952 192.484,235.903 192.517,235.695 192.388 C 235.458 192.242,235.414 192.348,235.526 192.794 C 235.610 193.125,235.612 193.253,235.532 193.078 C 235.451 192.902,235.281 192.823,235.153 192.902 C 234.672 193.199,234.951 192.729,235.839 191.747 C 236.872 190.604,237.208 190.411,236.520 191.357 M246.603 191.318 C 246.603 191.361,246.975 191.733,247.429 192.143 L 248.254 192.889 247.508 192.063 C 246.813 191.294,246.603 191.121,246.603 191.318 M249.655 192.698 C 249.665 193.205,250.089 193.565,250.233 193.189 C 250.313 192.981,250.309 192.743,250.226 192.660 C 250.012 192.446,249.650 192.471,249.655 192.698 M257.588 193.905 C 257.591 194.463,257.643 194.662,257.703 194.346 C 257.764 194.030,257.762 193.573,257.698 193.330 C 257.635 193.088,257.585 193.346,257.588 193.905 M239.918 194.490 C 239.457 194.999,238.217 197.880,238.231 198.408 C 238.236 198.585,238.568 197.897,238.970 196.879 C 240.365 193.342,241.158 193.696,242.413 198.413 C 242.861 200.098,243.093 200.415,243.453 199.834 C 243.556 199.667,243.523 199.609,243.377 199.700 C 243.227 199.792,242.940 199.199,242.690 198.279 C 241.855 195.203,240.701 193.625,239.918 194.490 M223.810 195.937 C 223.813 196.495,223.865 196.694,223.926 196.378 C 223.986 196.062,223.984 195.605,223.921 195.362 C 223.857 195.119,223.807 195.378,223.810 195.937 M245.516 196.758 C 245.457 197.144,245.408 196.889,245.406 196.190 C 245.404 195.492,245.452 195.176,245.512 195.489 C 245.572 195.801,245.574 196.372,245.516 196.758 M235.276 197.994 C 235.389 198.288,235.318 198.308,234.915 198.092 C 234.639 197.944,234.413 197.717,234.413 197.586 C 234.413 197.236,235.112 197.567,235.276 197.994 M246.857 197.611 C 246.857 197.764,246.636 197.947,246.366 198.017 C 245.950 198.126,245.917 198.237,246.149 198.747 C 246.300 199.078,246.523 199.288,246.644 199.213 C 246.766 199.137,246.784 198.941,246.686 198.776 C 246.572 198.586,246.656 198.598,246.915 198.808 C 247.259 199.087,247.367 199.066,247.591 198.681 C 247.738 198.429,247.861 198.357,247.865 198.522 C 247.876 198.930,247.156 199.619,246.719 199.619 C 246.049 199.619,245.547 198.245,246.037 197.754 C 246.522 197.269,246.857 197.211,246.857 197.611 M251.111 198.231 C 250.477 199.080,250.559 199.316,251.204 198.497 C 251.499 198.122,251.699 197.775,251.648 197.726 C 251.597 197.677,251.356 197.904,251.111 198.231 M240.114 198.581 C 240.193 198.709,240.124 198.858,239.960 198.913 C 239.797 198.967,239.635 199.206,239.600 199.444 C 239.563 199.699,239.649 199.806,239.811 199.706 C 239.979 199.602,240.030 199.682,239.942 199.912 C 239.835 200.191,239.987 200.289,240.534 200.289 C 240.939 200.289,241.279 200.224,241.289 200.144 C 241.300 200.065,241.347 199.799,241.394 199.554 C 241.441 199.309,241.375 199.173,241.248 199.252 C 241.038 199.381,240.908 199.029,240.986 198.540 C 241.002 198.435,240.781 198.349,240.493 198.349 C 240.205 198.349,240.035 198.454,240.114 198.581 M233.315 199.074 C 233.560 198.871,233.651 198.872,233.651 199.080 C 233.651 199.237,233.565 199.374,233.460 199.385 C 233.356 199.395,233.070 199.442,232.825 199.489 C 232.551 199.542,232.381 199.418,232.381 199.165 C 232.381 198.851,232.451 198.825,232.680 199.054 C 232.898 199.272,233.069 199.278,233.315 199.074 M241.001 199.474 C 241.216 199.733,241.137 199.777,240.633 199.681 C 239.843 199.530,239.615 199.229,240.255 199.181 C 240.515 199.161,240.851 199.293,241.001 199.474 M235.788 199.998 C 235.277 200.509,235.206 200.727,235.420 201.127 C 235.822 201.878,236.196 202.008,236.650 201.554 C 236.916 201.288,236.952 201.143,236.753 201.143 C 236.583 201.143,236.444 201.275,236.444 201.436 C 236.444 201.604,236.231 201.536,235.945 201.277 C 235.394 200.779,235.631 199.873,236.311 199.873 C 236.508 199.873,236.739 199.759,236.825 199.619 C 237.138 199.113,236.406 199.381,235.788 199.998 M244.762 199.870 C 245.725 200.457,245.767 200.647,245.078 201.271 C 244.798 201.525,244.625 201.789,244.695 201.859 C 244.884 202.048,245.841 201.115,245.841 200.741 C 245.841 200.374,244.650 199.365,244.220 199.366 C 244.064 199.367,244.308 199.593,244.762 199.870 M239.206 201.065 C 239.014 201.301,238.988 201.416,239.148 201.320 C 239.308 201.224,239.507 201.322,239.590 201.538 C 239.672 201.754,239.635 201.866,239.507 201.787 C 239.378 201.707,239.183 201.787,239.072 201.964 C 238.779 202.434,238.738 202.946,239.006 202.780 C 239.134 202.701,239.238 202.929,239.238 203.287 C 239.238 203.992,238.722 204.157,238.259 203.600 C 238.056 203.355,238.061 203.184,238.279 202.965 C 238.508 202.736,238.507 202.667,238.273 202.667 C 238.105 202.667,237.968 202.795,237.968 202.952 C 237.968 203.138,237.817 203.116,237.534 202.888 C 237.235 202.649,237.276 202.792,237.663 203.343 C 238.068 203.921,238.136 204.179,237.907 204.260 C 237.731 204.321,238.119 204.417,238.769 204.472 C 239.420 204.527,239.912 204.508,239.865 204.431 C 239.817 204.354,240.188 204.279,240.690 204.264 C 241.363 204.245,241.509 204.305,241.246 204.492 C 240.969 204.690,240.993 204.713,241.354 204.595 C 241.610 204.512,242.239 204.436,242.751 204.427 C 243.428 204.414,243.552 204.357,243.204 204.221 C 242.764 204.048,242.795 203.952,243.585 203.047 C 244.058 202.505,244.258 202.132,244.031 202.217 C 243.804 202.303,243.518 202.296,243.396 202.202 C 243.274 202.109,243.256 202.136,243.355 202.263 C 243.678 202.677,242.729 203.937,242.095 203.937 C 241.573 203.937,241.539 203.875,241.794 203.398 C 242.027 202.962,242.017 202.898,241.740 203.061 C 241.551 203.171,241.597 203.033,241.842 202.753 C 242.087 202.473,242.210 202.168,242.117 202.075 C 241.873 201.831,241.469 201.865,241.625 202.116 C 241.697 202.233,241.595 202.328,241.400 202.328 C 241.204 202.328,241.066 202.209,241.093 202.063 C 241.168 201.662,241.628 201.182,241.824 201.301 C 241.919 201.358,242.064 201.297,242.145 201.165 C 242.227 201.032,242.163 200.843,242.002 200.744 C 241.842 200.645,241.610 200.743,241.488 200.963 C 241.345 201.217,241.012 201.328,240.569 201.270 C 240.186 201.219,239.781 201.170,239.668 201.160 C 239.555 201.151,239.533 201.029,239.619 200.889 C 239.875 200.475,239.583 200.599,239.206 201.065 M247.769 201.118 C 247.311 201.624,247.607 202.099,248.166 201.754 C 248.512 201.540,248.252 202.051,247.668 202.730 C 247.418 203.021,247.389 203.175,247.583 203.175 C 247.923 203.175,248.887 201.699,248.888 201.175 C 248.889 200.892,248.817 200.887,248.502 201.148 C 248.179 201.416,248.142 201.400,248.275 201.052 C 248.487 200.501,248.306 200.525,247.769 201.118 M240.844 201.818 C 240.936 201.910,240.905 202.114,240.774 202.271 C 240.626 202.450,240.636 202.696,240.800 202.929 C 241.007 203.222,241.028 203.193,240.898 202.794 C 240.771 202.406,240.802 202.356,241.029 202.581 C 241.442 202.990,241.152 203.354,240.455 203.302 C 240.073 203.273,239.868 203.092,239.857 202.772 C 239.831 201.971,240.424 201.398,240.844 201.818 M246.625 203.796 C 246.753 203.717,246.857 203.761,246.857 203.894 C 246.857 204.176,246.085 204.519,245.890 204.323 C 245.816 204.250,245.886 204.190,246.045 204.190 C 246.204 204.190,246.298 204.048,246.256 203.873 C 246.213 203.698,246.227 203.642,246.286 203.748 C 246.344 203.853,246.497 203.875,246.625 203.796 M254.794 205.333 C 254.797 205.892,254.849 206.091,254.910 205.775 C 254.971 205.459,254.968 205.002,254.905 204.759 C 254.841 204.516,254.791 204.775,254.794 205.333 M233.143 204.778 C 233.143 204.822,233.514 205.193,233.968 205.603 L 234.794 206.349 234.048 205.524 C 233.352 204.754,233.143 204.582,233.143 204.778 M293.968 214.349 C 294.185 214.768,294.419 215.111,294.489 215.111 C 294.559 215.111,294.439 214.768,294.222 214.349 C 294.006 213.930,293.771 213.587,293.701 213.587 C 293.631 213.587,293.752 213.930,293.968 214.349 M236.127 214.528 C 236.441 214.589,236.956 214.589,237.270 214.528 C 237.584 214.468,237.327 214.418,236.698 214.418 C 236.070 214.418,235.813 214.468,236.127 214.528 M243.749 214.529 C 244.065 214.590,244.522 214.587,244.765 214.524 C 245.008 214.460,244.749 214.410,244.190 214.413 C 243.632 214.416,243.433 214.468,243.749 214.529 M136.465 233.587 C 167.172 233.623,217.343 233.623,247.957 233.587 C 278.571 233.552,253.448 233.523,192.127 233.523 C 130.806 233.523,105.759 233.552,136.465 233.587 M326.095 233.518 C 326.095 233.572,326.438 233.860,326.857 234.159 C 327.276 234.457,327.618 234.608,327.617 234.493 C 327.617 234.379,327.274 234.091,326.856 233.853 C 326.437 233.615,326.095 233.464,326.095 233.518 M78.667 233.830 C 78.981 233.891,79.495 233.891,79.810 233.830 C 80.124 233.769,79.867 233.720,79.238 233.720 C 78.610 233.720,78.352 233.769,78.667 233.830 M304.444 233.830 C 304.759 233.891,305.273 233.891,305.587 233.830 C 305.902 233.769,305.644 233.720,305.016 233.720 C 304.387 233.720,304.130 233.769,304.444 233.830 M76.762 234.080 C 77.006 234.144,77.406 234.144,77.651 234.080 C 77.895 234.016,77.695 233.964,77.206 233.964 C 76.717 233.964,76.517 234.016,76.762 234.080 M314.646 235.954 C 315.403 236.223,316.067 236.399,316.120 236.345 C 316.239 236.227,313.926 235.421,313.542 235.447 C 313.392 235.457,313.889 235.686,314.646 235.954 M318.730 237.587 C 319.079 237.787,319.479 237.950,319.619 237.950 C 319.759 237.950,319.587 237.787,319.238 237.587 C 318.889 237.388,318.489 237.224,318.349 237.224 C 318.210 237.224,318.381 237.388,318.730 237.587 M63.937 238.112 C 63.273 238.457,62.730 238.797,62.730 238.866 C 62.730 238.980,65.244 237.792,65.503 237.557 C 65.817 237.270,64.991 237.563,63.937 238.112 M60.762 239.890 C 60.168 240.246,59.683 240.597,59.683 240.670 C 59.683 240.807,61.396 239.834,61.829 239.451 C 62.265 239.065,61.858 239.233,60.762 239.890 M322.921 239.676 C 323.060 239.810,323.632 240.175,324.190 240.489 C 324.749 240.803,324.978 240.870,324.698 240.637 C 324.131 240.166,322.522 239.296,322.921 239.676 M325.333 241.108 C 325.333 241.178,325.676 241.479,326.095 241.778 C 326.514 242.076,326.857 242.263,326.857 242.193 C 326.857 242.123,326.514 241.822,326.095 241.524 C 325.676 241.225,325.333 241.038,325.333 241.108 M54.336 244.762 L 53.460 245.714 54.413 244.839 C 55.299 244.024,55.482 243.810,55.288 243.810 C 55.245 243.810,54.817 244.238,54.336 244.762 M329.905 244.641 C 329.905 244.680,330.790 245.565,331.873 246.610 L 333.841 248.508 331.943 246.540 C 330.180 244.712,329.905 244.456,329.905 244.641 M79.873 246.012 C 60.325 248.452,47.345 268.527,53.217 287.239 C 55.169 293.460,59.793 300.048,64.590 303.444 C 66.201 304.585,66.098 304.304,64.444 303.048 C 58.960 298.882,55.540 293.732,55.882 290.159 C 56.002 288.902,56.127 286.930,56.160 285.778 C 56.194 284.625,56.327 283.683,56.457 283.683 C 56.588 283.683,56.640 283.397,56.573 283.048 C 56.506 282.698,56.550 282.413,56.670 282.413 C 56.790 282.413,56.889 282.151,56.889 281.831 C 56.889 281.511,57.075 280.568,57.303 279.736 C 57.531 278.903,57.745 277.937,57.779 277.587 C 57.812 277.238,57.863 276.952,57.891 276.952 C 57.920 276.952,57.984 276.735,58.034 276.470 C 58.084 276.204,58.263 275.902,58.433 275.797 C 58.602 275.692,58.670 275.424,58.585 275.200 C 58.499 274.977,58.527 274.794,58.647 274.794 C 58.868 274.794,59.711 272.915,59.645 272.569 C 59.575 272.198,60.245 270.730,60.484 270.730 C 60.619 270.730,60.658 270.616,60.571 270.476 C 60.485 270.337,60.533 270.222,60.679 270.222 C 60.824 270.222,61.021 269.911,61.116 269.531 C 61.311 268.755,62.034 267.436,62.907 266.262 C 63.229 265.830,63.492 265.360,63.492 265.219 C 63.492 265.078,63.778 264.655,64.127 264.278 C 64.476 263.901,64.767 263.456,64.773 263.289 C 64.779 263.121,65.121 262.704,65.535 262.361 C 65.948 262.018,66.286 261.530,66.286 261.276 C 66.286 261.022,66.566 260.687,66.908 260.531 C 67.251 260.375,67.707 259.877,67.922 259.424 C 68.137 258.971,68.537 258.542,68.810 258.470 C 69.084 258.398,69.514 258.013,69.766 257.614 C 70.018 257.215,70.381 256.856,70.572 256.815 C 70.936 256.738,71.850 255.757,71.865 255.429 C 71.869 255.324,71.997 255.238,72.150 255.238 C 72.302 255.238,72.878 254.810,73.431 254.286 C 73.984 253.762,74.545 253.319,74.678 253.302 C 74.812 253.284,75.035 253.256,75.175 253.238 C 75.314 253.221,75.400 253.103,75.365 252.978 C 75.330 252.852,75.411 252.709,75.544 252.660 C 75.677 252.611,76.044 252.314,76.358 252.000 C 76.672 251.686,77.112 251.429,77.336 251.429 C 77.560 251.429,78.053 251.089,78.432 250.674 C 78.811 250.259,79.348 249.881,79.624 249.835 C 80.251 249.729,81.764 248.939,82.228 248.475 C 82.419 248.284,82.847 248.127,83.178 248.127 C 83.509 248.127,83.841 248.028,83.916 247.906 C 83.991 247.784,84.769 247.413,85.645 247.081 L 87.238 246.476 84.952 246.333 C 83.695 246.254,132.781 246.199,194.032 246.211 C 296.237 246.231,305.533 246.267,307.048 246.648 C 309.511 247.268,310.367 247.405,309.079 246.974 C 305.552 245.793,310.701 245.841,192.000 245.880 C 130.749 245.901,80.292 245.960,79.873 246.012 M310.370 247.459 C 310.651 247.710,314.907 249.326,314.791 249.138 C 314.717 249.019,313.749 248.572,312.638 248.144 C 310.772 247.424,310.105 247.223,310.370 247.459 M50.171 248.928 C 49.524 249.649,48.761 250.592,48.475 251.024 L 47.956 251.810 48.500 251.175 C 48.800 250.825,49.617 249.883,50.315 249.079 C 51.014 248.276,51.532 247.619,51.467 247.619 C 51.402 247.619,50.819 248.208,50.171 248.928 M316.031 249.959 C 317.540 250.995,319.520 252.123,318.867 251.575 C 318.453 251.227,317.539 250.648,316.835 250.288 C 316.131 249.928,315.769 249.780,316.031 249.959 M91.626 251.107 C 92.223 251.161,93.137 251.160,93.658 251.105 C 94.178 251.051,93.689 251.007,92.571 251.008 C 91.454 251.009,91.028 251.053,91.626 251.107 M152.444 251.106 C 152.968 251.160,153.825 251.160,154.349 251.106 C 154.873 251.051,154.444 251.006,153.397 251.006 C 152.349 251.006,151.921 251.051,152.444 251.106 M85.524 252.590 C 84.539 253.124,84.651 253.308,85.651 252.800 C 86.608 252.313,86.778 252.187,86.455 252.201 C 86.327 252.206,85.908 252.381,85.524 252.590 M118.722 252.502 C 118.655 252.680,118.629 264.197,118.665 278.095 L 118.730 303.365 123.683 303.365 L 128.635 303.365 128.635 277.841 L 128.635 252.317 123.740 252.248 C 119.963 252.195,118.817 252.253,118.722 252.502 M180.183 252.503 C 180.115 252.680,180.089 264.197,180.125 278.095 L 180.190 303.365 185.143 303.373 L 190.095 303.381 185.206 303.304 L 180.317 303.227 180.317 277.836 L 180.317 252.444 185.263 252.444 L 190.208 252.444 190.290 255.873 L 190.372 259.302 190.360 255.810 L 190.349 252.317 185.327 252.249 C 181.448 252.195,180.278 252.253,180.183 252.503 M209.615 252.381 C 215.318 252.449,215.653 252.480,215.329 252.894 C 215.018 253.291,215.027 253.300,215.426 252.987 C 216.308 252.295,215.483 252.192,209.572 252.249 L 203.556 252.308 209.615 252.381 M229.270 252.380 C 231.260 252.423,234.517 252.423,236.508 252.380 C 238.498 252.337,236.870 252.302,232.889 252.302 C 228.908 252.302,227.279 252.337,229.270 252.380 M320.000 252.475 C 323.151 255.549,325.296 257.470,323.556 255.659 C 322.508 254.568,321.194 253.323,320.635 252.890 C 320.076 252.457,319.790 252.271,320.000 252.475 M128.508 277.841 L 128.508 303.238 123.683 303.238 L 118.857 303.238 118.857 277.841 L 118.857 252.444 123.683 252.444 L 128.508 252.444 128.508 277.841 M46.319 254.032 C 45.445 255.515,45.388 255.642,45.833 255.111 C 46.349 254.497,46.794 253.714,46.627 253.714 C 46.561 253.714,46.422 253.857,46.319 254.032 M82.277 255.175 L 80.889 256.635 82.349 255.247 C 83.706 253.957,83.926 253.714,83.737 253.714 C 83.698 253.714,83.041 254.371,82.277 255.175 M142.984 255.111 C 142.367 255.740,141.920 256.254,141.989 256.254 C 142.059 256.254,142.621 255.740,143.238 255.111 C 143.855 254.483,144.303 253.968,144.233 253.968 C 144.163 253.968,143.601 254.483,142.984 255.111 M338.667 255.492 C 338.883 255.911,339.118 256.254,339.188 256.254 C 339.257 256.254,339.137 255.911,338.921 255.492 C 338.704 255.073,338.469 254.730,338.400 254.730 C 338.330 254.730,338.450 255.073,338.667 255.492 M104.889 256.635 C 105.363 257.124,105.808 257.524,105.877 257.524 C 105.947 257.524,105.617 257.124,105.143 256.635 C 104.669 256.146,104.224 255.746,104.154 255.746 C 104.084 255.746,104.415 256.146,104.889 256.635 M165.079 256.079 C 165.079 256.123,165.451 256.495,165.905 256.905 L 166.730 257.651 165.984 256.825 C 165.289 256.056,165.079 255.883,165.079 256.079 M340.116 258.151 C 340.562 259.054,340.968 259.751,341.019 259.700 C 341.133 259.587,339.597 256.508,339.427 256.508 C 339.361 256.508,339.671 257.247,340.116 258.151 M44.051 258.057 C 43.690 258.769,43.437 259.395,43.489 259.447 C 43.541 259.499,43.890 258.916,44.265 258.152 C 44.640 257.387,44.893 256.762,44.827 256.762 C 44.761 256.762,44.412 257.345,44.051 258.057 M325.952 258.623 C 326.343 259.136,326.715 259.556,326.778 259.556 C 326.954 259.556,325.855 258.070,325.529 257.869 C 325.371 257.771,325.561 258.110,325.952 258.623 M341.097 260.190 C 341.097 260.330,341.261 260.730,341.460 261.079 C 341.660 261.429,341.823 261.600,341.823 261.460 C 341.823 261.321,341.660 260.921,341.460 260.571 C 341.261 260.222,341.097 260.051,341.097 260.190 M92.000 260.746 C 92.244 260.810,92.644 260.810,92.889 260.746 C 93.133 260.683,92.933 260.630,92.444 260.630 C 91.956 260.630,91.756 260.683,92.000 260.746 M152.698 260.746 C 152.943 260.810,153.343 260.810,153.587 260.746 C 153.832 260.683,153.632 260.630,153.143 260.630 C 152.654 260.630,152.454 260.683,152.698 260.746 M328.254 262.095 C 328.471 262.514,328.705 262.857,328.775 262.857 C 328.845 262.857,328.725 262.514,328.508 262.095 C 328.291 261.676,328.057 261.333,327.987 261.333 C 327.917 261.333,328.037 261.676,328.254 262.095 M235.683 267.048 L 235.683 272.254 238.286 272.201 L 240.889 272.148 238.413 272.065 L 235.937 271.982 235.937 267.048 L 235.937 262.115 238.159 262.030 L 240.381 261.946 238.032 261.893 L 235.683 261.841 235.683 267.048 M78.557 263.873 C 78.557 264.781,78.604 265.152,78.660 264.698 C 78.716 264.244,78.716 263.502,78.660 263.048 C 78.604 262.594,78.557 262.965,78.557 263.873 M139.251 263.873 C 139.251 264.641,139.298 264.956,139.357 264.571 C 139.415 264.187,139.415 263.559,139.357 263.175 C 139.298 262.790,139.251 263.105,139.251 263.873 M329.680 264.762 C 329.685 264.902,329.908 265.473,330.177 266.032 C 330.446 266.590,330.594 266.762,330.507 266.413 C 330.328 265.694,329.667 264.373,329.680 264.762 M343.147 265.905 C 343.147 266.114,343.245 266.514,343.365 266.794 C 343.503 267.114,343.583 267.161,343.583 266.921 C 343.583 266.711,343.485 266.311,343.365 266.032 C 343.228 265.712,343.147 265.665,343.147 265.905 M90.540 267.683 C 91.369 268.521,92.105 269.206,92.175 269.206 C 92.244 269.206,91.623 268.521,90.794 267.683 C 89.964 266.844,89.229 266.159,89.159 266.159 C 89.089 266.159,89.710 266.844,90.540 267.683 M151.238 267.683 C 152.067 268.521,152.803 269.206,152.873 269.206 C 152.943 269.206,152.321 268.521,151.492 267.683 C 150.663 266.844,149.927 266.159,149.857 266.159 C 149.787 266.159,150.409 266.844,151.238 267.683 M331.210 268.952 C 331.210 269.162,331.309 269.562,331.429 269.841 C 331.566 270.161,331.647 270.208,331.647 269.968 C 331.647 269.759,331.549 269.359,331.429 269.079 C 331.291 268.759,331.210 268.712,331.210 268.952 M39.932 271.238 C 39.932 271.727,39.984 271.927,40.048 271.683 C 40.112 271.438,40.112 271.038,40.048 270.794 C 39.984 270.549,39.932 270.749,39.932 271.238 M39.692 273.397 C 39.694 274.095,39.743 274.351,39.801 273.965 C 39.860 273.579,39.858 273.007,39.798 272.695 C 39.738 272.383,39.690 272.698,39.692 273.397 M332.255 274.159 C 332.257 274.717,332.309 274.916,332.370 274.600 C 332.431 274.284,332.429 273.827,332.365 273.584 C 332.301 273.342,332.252 273.600,332.255 274.159 M344.708 274.921 C 344.709 275.619,344.759 275.875,344.817 275.489 C 344.876 275.103,344.874 274.531,344.814 274.219 C 344.753 273.906,344.706 274.222,344.708 274.921 M39.463 277.841 C 39.463 279.587,39.504 280.302,39.553 279.429 C 39.603 278.556,39.603 277.127,39.553 276.254 C 39.504 275.381,39.463 276.095,39.463 277.841 M332.536 277.841 C 332.536 279.168,332.579 279.711,332.631 279.048 C 332.683 278.384,332.683 277.298,332.631 276.635 C 332.579 275.971,332.536 276.514,332.536 277.841 M85.587 276.397 C 85.587 276.441,85.959 276.812,86.413 277.222 L 87.238 277.968 86.492 277.143 C 85.797 276.373,85.587 276.201,85.587 276.397 M146.286 276.397 C 146.286 276.441,146.657 276.812,147.111 277.222 L 147.937 277.968 147.191 277.143 C 146.495 276.373,146.286 276.201,146.286 276.397 M102.984 278.603 C 103.530 279.162,104.033 279.619,104.103 279.619 C 104.173 279.619,103.784 279.162,103.238 278.603 C 102.693 278.044,102.189 277.587,102.119 277.587 C 102.049 277.587,102.439 278.044,102.984 278.603 M163.683 278.603 C 164.228 279.162,164.732 279.619,164.801 279.619 C 164.871 279.619,164.482 279.162,163.937 278.603 C 163.391 278.044,162.887 277.587,162.818 277.587 C 162.748 277.587,163.137 278.044,163.683 278.603 M266.216 282.349 L 266.273 286.857 266.349 282.479 L 266.425 278.101 276.641 278.032 L 286.857 277.962 276.508 277.902 L 266.159 277.841 266.216 282.349 M305.373 281.778 C 305.373 284.013,305.412 284.893,305.459 283.734 C 305.506 282.575,305.506 280.746,305.458 279.670 C 305.411 278.595,305.372 279.543,305.373 281.778 M344.708 280.762 C 344.709 281.460,344.759 281.716,344.817 281.330 C 344.876 280.944,344.874 280.372,344.814 280.060 C 344.753 279.748,344.706 280.063,344.708 280.762 M332.255 281.524 C 332.257 282.083,332.309 282.281,332.370 281.965 C 332.431 281.649,332.429 281.192,332.365 280.949 C 332.301 280.707,332.252 280.965,332.255 281.524 M39.692 282.286 C 39.694 282.984,39.743 283.240,39.801 282.854 C 39.860 282.468,39.858 281.896,39.798 281.584 C 39.738 281.271,39.690 281.587,39.692 282.286 M235.683 292.439 L 235.683 303.227 230.667 303.305 L 225.651 303.382 230.730 303.374 L 235.810 303.365 235.876 292.646 L 235.942 281.928 237.654 281.839 L 239.365 281.750 237.524 281.701 L 235.683 281.651 235.683 292.439 M39.932 284.444 C 39.932 284.933,39.984 285.133,40.048 284.889 C 40.112 284.644,40.112 284.244,40.048 284.000 C 39.984 283.756,39.932 283.956,39.932 284.444 M95.746 285.333 C 96.505 286.102,97.183 286.730,97.252 286.730 C 97.322 286.730,96.759 286.102,96.000 285.333 C 95.241 284.565,94.563 283.937,94.494 283.937 C 94.424 283.937,94.987 284.565,95.746 285.333 M156.444 285.333 C 157.203 286.102,157.881 286.730,157.951 286.730 C 158.021 286.730,157.457 286.102,156.698 285.333 C 155.940 284.565,155.262 283.937,155.192 283.937 C 155.122 283.937,155.686 284.565,156.444 285.333 M312.287 285.579 C 312.088 286.338,311.598 309.877,311.777 310.074 C 311.830 310.132,311.876 309.618,311.879 308.931 L 311.886 307.683 314.863 306.253 C 316.501 305.466,318.127 304.581,318.476 304.285 C 318.984 303.854,318.857 303.883,317.841 304.432 C 317.077 304.845,316.699 304.959,316.892 304.719 C 317.238 304.290,317.396 294.685,317.082 293.209 C 316.254 289.314,315.326 287.437,313.656 286.276 C 313.110 285.897,312.624 285.416,312.574 285.206 C 312.525 284.996,312.396 285.163,312.287 285.579 M343.404 288.547 C 343.238 289.266,343.149 289.900,343.205 289.956 C 343.262 290.013,343.448 289.475,343.619 288.762 C 343.790 288.048,343.880 287.414,343.818 287.352 C 343.756 287.291,343.570 287.828,343.404 288.547 M266.018 296.508 C 266.018 300.838,266.052 302.645,266.095 300.524 C 266.137 298.402,266.137 294.859,266.095 292.651 C 266.053 290.442,266.018 292.178,266.018 296.508 M55.216 291.048 L 55.384 291.683 55.025 291.048 C 54.828 290.698,54.591 290.127,54.499 289.778 L 54.331 289.143 54.689 289.778 C 54.886 290.127,55.123 290.698,55.216 291.048 M305.127 296.508 C 305.127 300.279,305.162 301.858,305.206 300.015 C 305.249 298.173,305.249 295.087,305.206 293.158 C 305.163 291.229,305.127 292.737,305.127 296.508 M87.365 292.444 C 87.839 292.933,88.284 293.333,88.354 293.333 C 88.423 293.333,88.093 292.933,87.619 292.444 C 87.145 291.956,86.700 291.556,86.631 291.556 C 86.561 291.556,86.891 291.956,87.365 292.444 M148.063 292.444 C 148.537 292.933,148.982 293.333,149.052 293.333 C 149.122 293.333,148.791 292.933,148.317 292.444 C 147.844 291.956,147.399 291.556,147.329 291.556 C 147.259 291.556,147.590 291.956,148.063 292.444 M328.508 293.079 C 328.291 293.498,328.171 293.841,328.241 293.841 C 328.311 293.841,328.545 293.498,328.762 293.079 C 328.979 292.660,329.099 292.317,329.029 292.317 C 328.959 292.317,328.725 292.660,328.508 293.079 M341.375 294.741 C 340.949 295.675,341.030 295.874,341.490 295.025 C 341.705 294.629,341.833 294.257,341.775 294.199 C 341.717 294.141,341.537 294.385,341.375 294.741 M92.508 295.032 C 92.752 295.096,93.152 295.096,93.397 295.032 C 93.641 294.968,93.441 294.916,92.952 294.916 C 92.463 294.916,92.263 294.968,92.508 295.032 M153.206 295.032 C 153.451 295.096,153.851 295.096,154.095 295.032 C 154.340 294.968,154.140 294.916,153.651 294.916 C 153.162 294.916,152.962 294.968,153.206 295.032 M43.429 296.222 C 43.429 296.496,44.437 298.413,44.582 298.413 C 44.652 298.413,44.464 297.927,44.164 297.333 C 43.576 296.166,43.429 295.944,43.429 296.222 M323.048 300.317 C 322.007 301.365,321.213 302.222,321.283 302.222 C 321.352 302.222,322.261 301.365,323.302 300.317 C 324.342 299.270,325.136 298.413,325.067 298.413 C 324.997 298.413,324.088 299.270,323.048 300.317 M80.635 299.937 C 81.323 300.635,81.943 301.206,82.013 301.206 C 82.082 301.206,81.577 300.635,80.889 299.937 C 80.201 299.238,79.581 298.667,79.511 298.667 C 79.441 298.667,79.947 299.238,80.635 299.937 M141.333 299.937 C 142.021 300.635,142.641 301.206,142.711 301.206 C 142.781 301.206,142.275 300.635,141.587 299.937 C 140.899 299.238,140.279 298.667,140.210 298.667 C 140.140 298.667,140.645 299.238,141.333 299.937 M104.381 300.063 C 103.764 300.692,103.316 301.206,103.386 301.206 C 103.456 301.206,104.018 300.692,104.635 300.063 C 105.252 299.435,105.699 298.921,105.630 298.921 C 105.560 298.921,104.998 299.435,104.381 300.063 M165.079 300.063 C 164.462 300.692,164.015 301.206,164.085 301.206 C 164.155 301.206,164.716 300.692,165.333 300.063 C 165.950 299.435,166.398 298.921,166.328 298.921 C 166.258 298.921,165.696 299.435,165.079 300.063 M338.921 299.683 C 338.704 300.102,338.584 300.444,338.654 300.444 C 338.723 300.444,338.958 300.102,339.175 299.683 C 339.391 299.263,339.511 298.921,339.442 298.921 C 339.372 298.921,339.137 299.263,338.921 299.683 M320.000 303.015 C 319.115 303.791,319.115 303.792,319.929 303.250 C 320.379 302.951,320.814 302.598,320.896 302.464 C 321.141 302.068,320.938 302.193,320.000 303.015 M336.508 303.492 C 336.210 303.911,336.023 304.254,336.092 304.254 C 336.162 304.254,336.464 303.911,336.762 303.492 C 337.060 303.073,337.247 302.730,337.177 302.730 C 337.108 302.730,336.806 303.073,336.508 303.492 M205.681 303.306 C 205.788 303.414,208.497 303.471,211.700 303.433 L 217.524 303.364 211.504 303.238 C 208.194 303.168,205.573 303.199,205.681 303.306 M66.413 304.640 C 66.692 304.867,67.149 305.165,67.429 305.302 L 67.937 305.552 67.429 305.138 C 67.149 304.911,66.692 304.612,66.413 304.475 L 65.905 304.226 66.413 304.640 M91.873 304.692 C 92.327 304.748,93.070 304.748,93.524 304.692 C 93.978 304.635,93.606 304.589,92.698 304.589 C 91.790 304.589,91.419 304.635,91.873 304.692 M152.571 304.692 C 153.025 304.748,153.768 304.748,154.222 304.692 C 154.676 304.635,154.305 304.589,153.397 304.589 C 152.489 304.589,152.117 304.635,152.571 304.692 M68.063 305.650 C 68.063 305.820,71.142 307.355,71.256 307.242 C 71.307 307.190,70.610 306.784,69.706 306.339 C 68.803 305.893,68.063 305.583,68.063 305.650 M334.079 306.603 L 333.333 307.429 334.159 306.683 C 334.928 305.987,335.101 305.778,334.905 305.778 C 334.861 305.778,334.490 306.149,334.079 306.603 M50.921 307.556 C 51.609 308.254,52.229 308.825,52.298 308.825 C 52.368 308.825,51.863 308.254,51.175 307.556 C 50.487 306.857,49.867 306.286,49.797 306.286 C 49.727 306.286,50.233 306.857,50.921 307.556 M265.764 314.032 C 265.764 318.362,265.798 320.169,265.841 318.048 C 265.883 315.926,265.883 312.383,265.841 310.175 C 265.799 307.966,265.764 309.702,265.764 314.032 M331.802 309.143 L 330.286 310.730 331.873 309.214 C 332.746 308.381,333.460 307.666,333.460 307.627 C 333.460 307.439,333.210 307.668,331.802 309.143 M42.634 308.254 C 42.766 308.498,43.190 308.984,43.577 309.333 C 44.194 309.891,44.176 309.836,43.431 308.889 C 42.537 307.752,42.234 307.511,42.634 308.254 M304.873 315.048 C 304.873 318.679,304.908 320.130,304.952 318.271 C 304.995 316.412,304.995 313.440,304.952 311.668 C 304.908 309.895,304.872 311.416,304.873 315.048 M53.460 310.072 C 54.233 310.916,56.635 313.014,56.635 312.844 C 56.635 312.793,55.749 311.961,54.667 310.995 C 53.584 310.029,53.041 309.614,53.460 310.072 M81.083 309.770 C 81.469 309.828,82.040 309.826,82.353 309.766 C 82.665 309.706,82.349 309.658,81.651 309.660 C 80.952 309.662,80.697 309.711,81.083 309.770 M337.524 312.762 C 336.907 313.390,336.459 313.905,336.529 313.905 C 336.599 313.905,337.161 313.390,337.778 312.762 C 338.395 312.133,338.842 311.619,338.772 311.619 C 338.703 311.619,338.141 312.133,337.524 312.762 M48.000 314.286 C 49.181 315.473,50.205 316.444,50.275 316.444 C 50.344 316.444,49.435 315.473,48.254 314.286 C 47.073 313.098,46.049 312.127,45.979 312.127 C 45.910 312.127,46.819 313.098,48.000 314.286 M56.889 312.981 C 56.889 313.051,57.232 313.352,57.651 313.651 C 58.070 313.949,58.413 314.136,58.413 314.066 C 58.413 313.996,58.070 313.695,57.651 313.397 C 57.232 313.098,56.889 312.911,56.889 312.981 M335.224 315.111 L 334.349 316.063 335.302 315.188 C 335.825 314.707,336.254 314.278,336.254 314.236 C 336.254 314.042,336.039 314.225,335.224 315.111 M284.425 315.111 L 283.810 315.810 284.500 315.201 C 285.108 314.666,285.246 314.635,285.643 314.947 C 286.055 315.270,286.064 315.262,285.747 314.857 C 285.283 314.265,285.148 314.291,284.425 315.111 M258.849 318.285 L 258.794 322.031 169.968 322.095 L 81.143 322.159 169.976 322.223 C 242.611 322.274,258.833 322.226,258.936 321.956 C 259.006 321.775,259.027 320.032,258.984 318.083 L 258.905 314.540 258.849 318.285 M290.286 318.556 C 290.286 318.626,290.857 319.161,291.556 319.746 C 292.254 320.331,292.825 320.752,292.825 320.682 C 292.825 320.612,292.254 320.077,291.556 319.492 C 290.857 318.907,290.286 318.486,290.286 318.556 M316.698 319.029 C 315.484 319.578,312.169 320.762,311.845 320.762 C 311.738 320.762,311.615 320.390,311.572 319.937 C 311.528 319.483,311.492 320.999,311.492 323.308 L 311.492 327.504 314.283 326.781 C 317.057 326.062,318.145 325.638,316.444 325.939 C 315.683 326.074,315.634 326.056,316.104 325.813 C 316.561 325.577,316.679 325.228,316.811 323.717 C 316.898 322.720,317.032 321.370,317.109 320.717 C 317.243 319.577,317.225 319.533,316.656 319.650 C 316.315 319.721,316.548 319.502,317.206 319.136 C 318.579 318.371,318.288 318.310,316.698 319.029 M68.317 319.325 C 68.317 319.475,71.365 320.515,71.732 320.489 C 71.879 320.479,71.429 320.267,70.730 320.019 C 68.802 319.332,68.317 319.193,68.317 319.325 M76.190 321.524 C 76.679 321.653,77.994 321.814,79.111 321.881 C 80.912 321.990,80.970 321.981,79.619 321.802 C 76.242 321.356,75.247 321.275,76.190 321.524 M295.873 323.123 C 295.873 323.187,296.411 323.681,297.068 324.219 C 297.725 324.758,298.180 325.065,298.080 324.903 C 297.866 324.558,295.873 322.949,295.873 323.123 M281.660 326.087 L 278.321 328.873 285.422 328.945 C 289.328 328.984,292.470 328.930,292.405 328.825 C 292.341 328.721,291.637 328.631,290.842 328.627 C 289.706 328.621,289.495 328.562,289.857 328.352 C 290.110 328.205,290.491 328.151,290.703 328.233 C 291.468 328.526,290.877 327.897,288.254 325.623 C 285.000 322.801,285.654 322.755,281.660 326.087 M265.451 327.556 C 265.401 330.203,265.568 330.910,266.056 330.119 C 266.166 329.941,266.126 329.895,265.953 330.002 C 265.751 330.127,265.644 329.379,265.586 327.438 L 265.505 324.698 265.451 327.556 M304.587 328.254 C 304.588 329.092,304.635 329.404,304.692 328.948 C 304.749 328.491,304.747 327.806,304.689 327.424 C 304.631 327.042,304.585 327.416,304.587 328.254 M80.190 328.814 C 80.505 328.875,81.019 328.875,81.333 328.814 C 81.648 328.754,81.390 328.704,80.762 328.704 C 80.133 328.704,79.876 328.754,80.190 328.814 M306.032 336.520 C 305.754 336.708,305.856 336.731,306.413 336.607 C 307.347 336.398,307.549 336.253,306.899 336.258 C 306.632 336.260,306.241 336.378,306.032 336.520 " stroke="none" fill="#87a4bb" fill-rule="evenodd"></path><path id="path3" d="M238.984 179.975 C 234.969 181.364,232.687 182.928,231.982 184.774 C 231.583 185.819,231.482 185.905,230.649 185.905 C 228.810 185.905,226.084 187.974,223.559 191.284 C 221.987 193.346,222.807 200.508,224.850 202.552 C 225.593 203.296,225.651 203.480,225.652 205.105 C 225.653 207.021,227.025 210.264,228.924 212.843 C 230.641 215.172,237.517 216.278,239.810 214.593 L 240.508 214.080 241.245 214.625 C 243.610 216.373,250.871 215.159,252.621 212.723 C 255.202 209.130,256.517 205.044,255.490 203.807 C 255.312 203.592,255.211 203.384,255.265 203.346 C 255.320 203.307,255.678 203.079,256.060 202.840 C 257.491 201.945,258.425 198.802,258.572 194.385 L 258.641 192.326 257.343 190.695 C 254.657 187.319,252.703 185.905,250.725 185.905 C 249.802 185.905,249.725 185.841,249.234 184.679 C 248.030 181.831,241.837 178.988,238.984 179.975 M243.674 181.600 C 246.705 182.862,248.889 184.813,248.889 186.260 C 248.889 186.736,249.036 186.794,250.242 186.794 C 252.094 186.794,253.585 187.756,255.955 190.484 L 257.823 192.635 257.661 194.904 C 257.360 199.103,256.692 201.077,255.154 202.304 L 254.307 202.980 254.694 204.057 C 255.374 205.947,253.847 209.991,251.518 212.472 C 249.512 214.608,241.597 215.143,240.849 213.193 C 240.758 212.958,240.396 213.094,239.578 213.670 C 237.051 215.449,230.974 214.225,229.278 211.596 C 226.960 208.000,225.961 204.737,226.781 203.441 C 226.954 203.167,226.799 202.925,226.178 202.504 C 224.743 201.529,223.846 198.714,223.708 194.760 L 223.641 192.821 225.467 190.670 C 227.943 187.753,229.575 186.667,231.480 186.667 C 232.233 186.667,232.341 186.576,232.481 185.835 C 232.816 184.044,234.778 182.507,238.410 181.190 C 240.436 180.455,241.034 180.501,243.674 181.600 M235.839 191.747 C 234.951 192.729,234.672 193.199,235.153 192.902 C 235.281 192.823,235.451 192.902,235.532 193.078 C 235.612 193.253,235.610 193.125,235.526 192.794 C 235.414 192.348,235.458 192.242,235.695 192.388 C 235.903 192.517,235.952 192.484,235.834 192.293 C 235.734 192.132,235.745 191.996,235.858 191.992 C 236.066 191.984,237.068 190.730,236.867 190.730 C 236.807 190.730,236.344 191.188,235.839 191.747 M244.571 191.366 C 244.921 191.784,245.286 192.162,245.383 192.206 C 245.479 192.250,245.497 192.479,245.422 192.715 C 245.316 193.047,245.341 193.065,245.533 192.797 C 245.741 192.504,245.801 192.504,245.917 192.797 C 245.993 192.987,246.060 193.029,246.067 192.889 C 246.081 192.585,245.424 191.811,244.562 191.113 L 243.937 190.607 244.571 191.366 M245.406 196.190 C 245.408 196.889,245.457 197.144,245.516 196.758 C 245.574 196.372,245.572 195.801,245.512 195.489 C 245.452 195.176,245.404 195.492,245.406 196.190 M247.510 201.119 L 246.767 202.032 247.624 201.214 C 248.096 200.765,248.431 200.354,248.368 200.302 C 248.305 200.249,247.919 200.617,247.510 201.119 M247.873 201.905 C 247.663 202.040,247.595 202.153,247.722 202.155 C 247.848 202.157,247.734 202.414,247.468 202.726 C 247.044 203.223,247.041 203.249,247.442 202.937 C 247.845 202.625,248.521 201.644,248.326 201.655 C 248.287 201.657,248.083 201.769,247.873 201.905 M246.166 203.754 C 246.264 204.009,246.213 204.190,246.045 204.190 C 245.886 204.190,245.824 204.258,245.907 204.341 C 245.990 204.423,246.225 204.395,246.431 204.277 C 246.756 204.091,246.753 204.015,246.402 203.691 C 246.044 203.360,246.018 203.368,246.166 203.754 M336.508 241.651 C 337.829 242.978,338.968 244.063,339.038 244.063 C 339.107 244.063,338.083 242.978,336.762 241.651 C 335.440 240.324,334.302 239.238,334.232 239.238 C 334.162 239.238,335.186 240.324,336.508 241.651 M351.556 274.667 C 351.559 275.225,351.611 275.424,351.672 275.108 C 351.732 274.792,351.730 274.335,351.667 274.092 C 351.603 273.849,351.553 274.108,351.556 274.667 M351.551 280.889 C 351.551 281.378,351.603 281.578,351.667 281.333 C 351.731 281.089,351.731 280.689,351.667 280.444 C 351.603 280.200,351.551 280.400,351.551 280.889 M313.397 307.171 L 312.000 307.758 311.932 314.152 L 311.864 320.545 312.440 320.367 C 313.535 320.029,316.062 318.973,315.556 319.066 C 315.056 319.156,315.050 319.054,315.175 312.849 C 315.258 308.720,315.214 306.547,315.048 306.562 C 314.908 306.574,314.165 306.848,313.397 307.171 M311.434 328.889 C 311.434 329.517,311.484 329.775,311.544 329.460 C 311.605 329.146,311.605 328.632,311.544 328.317 C 311.484 328.003,311.434 328.260,311.434 328.889 " stroke="none" fill="#4c1f74" fill-rule="evenodd"></path></g></svg>